<?xml version="1.0" standalone="no"?>
<!DOCTYPE svg PUBLIC "-//W3C//DTD SVG 20010904//EN"
 "http://www.w3.org/TR/2001/REC-SVG-20010904/DTD/svg10.dtd">
<svg version="1.0" xmlns="http://www.w3.org/2000/svg"
 width="300.000000pt" height="300.000000pt" viewBox="0 0 300.000000 300.000000"
 preserveAspectRatio="xMidYMid meet">
<metadata>
Created by potrace 1.10, written by Peter Selinger 2001-2011
</metadata>
<g transform="translate(0.000000,300.000000) scale(0.100000,-0.100000)"
fill="#076577" stroke="none">
<path d="M1315 2954 c-350 -51 -635 -193 -875 -433 -216 -217 -346 -456 -411
-761 -33 -150 -33 -447 -1 -597 65 -299 196 -538 422 -763 159 -159 297 -252
492 -329 97 -39 139 -40 167 -5 19 24 21 40 21 174 l0 146 -110 -4 c-238 -10
-326 35 -407 207 -44 92 -87 144 -181 222 -87 72 30 95 145 29 49 -28 77 -58
160 -174 23 -32 51 -54 98 -77 61 -30 70 -31 138 -26 39 3 90 12 111 20 36 12
41 18 60 79 12 36 34 81 49 101 l28 36 -23 5 c-13 3 -52 10 -88 16 -93 16
-154 37 -245 84 -211 108 -317 313 -318 616 -1 168 29 267 115 381 34 44 34
44 20 89 -28 94 -7 317 35 351 31 26 221 -36 341 -112 l63 -39 102 22 c146 31
408 31 554 0 l102 -22 56 36 c112 71 280 132 330 120 58 -15 89 -263 47 -376
-7 -20 -3 -32 25 -69 87 -113 117 -213 116 -381 -1 -303 -107 -508 -318 -616
-91 -47 -152 -68 -245 -84 -36 -6 -75 -13 -88 -16 l-23 -5 27 -34 c55 -72 64
-131 64 -415 0 -245 1 -259 21 -284 27 -34 70 -34 157 0 343 136 630 401 799
737 245 489 190 1105 -139 1552 -76 104 -250 272 -354 342 -167 113 -352 193
-554 238 -73 16 -413 29 -485 19z"/>
</g>
</svg>
