<?xml version="1.0" standalone="no"?>
<!DOCTYPE svg PUBLIC "-//W3C//DTD SVG 20010904//EN"
 "http://www.w3.org/TR/2001/REC-SVG-20010904/DTD/svg10.dtd">
<svg version="1.0" xmlns="http://www.w3.org/2000/svg"
 width="300.000000pt" height="275.000000pt" viewBox="0 0 300.000000 275.000000"
 preserveAspectRatio="xMidYMid meet">
<metadata>
Created by potrace 1.10, written by Peter Selinger 2001-2011
</metadata>
<g transform="translate(0.000000,275.000000) scale(0.100000,-0.100000)"
fill="#076577" stroke="none">
<path d="M2115 2630 c-3 -5 -3 -10 2 -10 19 -1 -24 -20 -45 -20 -13 0 -20 -4
-17 -10 4 -6 -23 -10 -75 -10 -73 0 -86 -3 -123 -28 -41 -27 -124 -54 -180
-57 -19 -1 -39 -15 -64 -45 -20 -23 -61 -58 -89 -76 -48 -31 -104 -89 -104
-109 0 -4 -11 -20 -24 -35 -39 -47 -163 -356 -181 -454 -6 -32 -4 -39 19 -57
14 -11 26 -29 26 -39 0 -9 7 -23 15 -30 8 -7 15 -27 15 -45 0 -39 17 -56 45
-45 29 11 41 29 49 72 4 20 20 51 36 68 28 30 32 32 82 25 29 -4 70 -15 93
-25 43 -18 77 -51 60 -57 -7 -2 -8 -36 -4 -96 4 -50 5 -95 3 -99 -3 -4 11 -19
31 -35 29 -23 34 -33 30 -54 -6 -24 -3 -27 37 -34 24 -4 63 -9 88 -10 85 -4
90 -5 90 -12 0 -11 -50 -33 -72 -33 -28 0 -255 -141 -264 -164 -3 -7 2 -29 11
-49 8 -20 15 -49 15 -65 0 -31 24 -71 36 -60 4 4 2 13 -3 20 -12 16 -24 98
-14 98 4 0 37 -26 75 -58 191 -163 322 -235 426 -235 67 0 129 7 152 17 27 12
38 -43 12 -60 -10 -7 -28 -20 -39 -28 -19 -15 -19 -15 7 -16 21 0 44 17 98 73
l71 72 -6 57 c-3 31 -12 88 -20 127 -8 38 -12 76 -9 84 3 9 -9 27 -33 46 -40
33 -28 41 22 15 41 -22 121 -51 178 -65 26 -6 47 -13 47 -16 0 -12 -27 -52
-63 -95 -21 -26 -37 -53 -35 -60 3 -7 1 -17 -4 -23 -4 -5 -19 -24 -33 -41 -14
-18 -25 -37 -25 -43 0 -20 -31 -74 -62 -110 -33 -38 -113 -101 -128 -101 -6 0
-10 -5 -10 -10 0 -6 -5 -9 -12 -8 -6 2 -20 -15 -31 -37 -45 -92 -102 -134
-174 -127 -37 4 -44 21 -13 29 11 3 20 10 20 15 0 5 -9 7 -20 4 -11 -3 -30 -9
-41 -12 -12 -4 -25 -1 -29 6 -10 16 -27 5 -45 -30 -13 -25 -13 -29 0 -40 12
-10 15 -9 15 4 0 24 15 20 34 -9 16 -24 16 -25 -8 -25 -15 0 -30 -10 -41 -26
-9 -15 -12 -23 -6 -20 6 4 11 2 11 -4 0 -7 6 -8 19 0 31 16 74 13 67 -5 -9
-25 16 -17 51 17 18 17 35 29 38 26 12 -11 25 -135 25 -233 l0 -100 45 0 c36
0 44 3 39 15 -4 8 -10 33 -15 55 -4 22 -15 57 -24 79 -9 21 -14 40 -12 42 2 2
33 -33 69 -79 62 -79 111 -117 153 -117 25 0 14 34 -13 38 -19 3 -21 6 -11 18
8 10 8 14 0 14 -12 0 -15 29 -5 54 3 9 10 14 14 11 4 -2 15 4 25 15 21 24 35
26 35 6 0 -15 52 -46 77 -46 7 0 13 -9 13 -20 0 -22 15 -27 26 -9 3 6 0 15 -7
20 -7 4 -10 11 -6 15 4 4 15 0 24 -8 10 -9 36 -25 58 -36 22 -11 49 -29 59
-41 21 -23 42 -29 30 -9 -6 10 -5 10 7 1 8 -6 59 -13 116 -15 56 -1 99 0 95 3
-12 10 -209 85 -392 150 -96 34 -197 73 -225 87 -54 27 -161 97 -169 110 -3 5
26 30 63 56 127 86 280 265 356 416 15 30 42 93 60 140 26 72 41 95 91 145 33
33 71 74 86 90 15 17 41 42 57 56 17 15 31 31 31 36 0 5 -17 19 -37 31 -78 45
-78 45 -55 94 12 24 31 83 42 133 22 91 23 145 4 359 -4 44 -2 72 5 79 6 6 11
19 11 28 0 25 -65 144 -119 216 -46 64 -68 80 -56 43 3 -11 2 -20 -4 -20 -5 0
-13 9 -16 20 -6 19 -16 24 -42 21 -8 -1 -13 10 -13 27 0 15 -7 37 -15 48 -8
10 -15 25 -15 32 0 23 36 -5 61 -45 35 -58 59 -66 59 -18 0 38 -62 85 -112 85
-39 0 -40 1 -22 15 18 14 18 14 -9 15 -38 0 -75 21 -117 65 -49 52 -83 65
-158 58 -59 -5 -62 -5 -71 19 -13 34 -61 52 -76 28z m11 -74 c-11 -8 -6 -20
31 -65 53 -66 66 -74 57 -34 -5 22 -4 26 6 16 7 -6 19 -9 26 -6 8 3 14 0 14
-6 0 -6 6 -11 13 -11 7 0 29 -11 50 -25 34 -24 51 -23 27 1 -8 8 -6 15 4 23
21 17 36 5 36 -28 0 -40 39 -75 71 -62 13 5 33 18 43 30 22 25 36 27 36 6 0
-8 -7 -15 -15 -15 -16 0 -20 -20 -7 -35 4 -6 5 -34 2 -64 -5 -53 -6 -54 -23
-36 -13 12 -21 15 -26 7 -4 -7 -11 -4 -20 9 -12 20 -11 21 18 14 27 -6 31 -4
31 14 0 22 -19 28 -36 11 -8 -8 -15 -6 -24 5 -7 8 -18 15 -26 15 -7 0 -19 9
-27 21 l-15 21 -7 -21 c-8 -26 -17 -26 -39 -2 -13 15 -14 20 -4 24 9 4 6 12
-12 26 -34 28 -49 27 -23 -1 16 -18 19 -28 12 -45 -10 -28 -26 -29 -34 -3 -3
11 -12 19 -18 17 -7 -1 -11 8 -9 22 2 18 -1 21 -10 13 -9 -7 -19 -6 -32 4 -28
20 -34 18 -41 -16 -4 -17 -11 -28 -16 -24 -5 3 -6 16 -3 29 3 12 1 26 -5 29
-6 4 -11 18 -11 32 0 43 -20 26 -21 -18 -1 -45 -3 -42 -23 39 -9 36 -30 58
-45 48 -7 -4 -3 -17 10 -35 15 -20 19 -34 13 -47 -6 -15 -9 -12 -12 15 -2 17
-7 32 -13 32 -5 0 -9 -4 -9 -8 0 -5 -10 -8 -22 -8 -41 2 -31 -28 17 -52 34
-16 45 -27 44 -44 0 -23 0 -23 -9 -2 -5 12 -23 27 -41 33 -44 15 -51 14 -44
-9 3 -11 2 -20 -4 -20 -5 0 -13 9 -16 21 -4 11 -21 27 -38 34 l-32 13 25 10
c14 6 36 22 50 37 31 34 74 57 120 64 28 5 36 12 38 31 4 24 4 24 19 5 12 -18
12 -21 -1 -29z m66 7 c10 -9 18 -21 18 -26 0 -6 7 -19 17 -29 9 -10 11 -18 5
-18 -6 0 -24 20 -41 45 -31 47 -31 57 1 28z m166 -27 c15 -8 41 -29 57 -46 17
-17 43 -38 58 -47 28 -14 28 -15 11 -34 -24 -27 -56 -21 -65 13 -11 40 -48 88
-69 88 -10 0 -28 9 -41 20 l-24 19 23 1 c13 0 35 -6 50 -14z m-453 -50 c-49
-45 -65 -54 -95 -53 -30 1 -59 19 -60 38 0 4 16 9 34 12 19 3 52 17 73 31 23
16 51 26 73 26 l35 -1 -60 -53z m285 25 c17 -33 11 -48 -10 -22 -11 13 -20 27
-20 32 0 16 19 9 30 -10z m112 -21 c-2 -9 7 -10 32 -6 30 6 35 4 30 -9 -3 -8
-12 -15 -19 -15 -7 0 -20 -2 -27 -5 -17 -7 -72 41 -63 55 8 13 51 -5 47 -20z
m-608 -52 c-31 -37 -47 -48 -71 -48 -23 0 -23 1 8 35 21 22 41 35 57 35 25 0
25 0 6 -22z m53 -12 c-3 -8 1 -20 9 -27 13 -10 20 -10 37 0 15 10 22 10 25 2
3 -8 9 -8 23 -1 15 8 19 7 19 -5 0 -9 9 -15 25 -15 30 0 31 -13 4 -51 -21 -31
-42 -39 -33 -14 11 27 -12 16 -26 -12 -10 -22 -14 -24 -17 -11 -2 9 1 27 8 39
10 19 9 21 -6 15 -12 -4 -18 0 -22 14 -8 29 -20 25 -28 -10 -8 -38 -30 -38
-50 0 -19 37 -19 49 2 72 19 21 37 24 30 4z m438 -35 c3 -5 1 -12 -5 -16 -5
-3 -10 1 -10 9 0 18 6 21 15 7z m-166 -35 c12 -18 21 -36 21 -40 0 -10 -48 -7
-55 4 -3 6 -11 10 -17 10 -7 0 -6 -5 1 -14 8 -10 9 -16 1 -21 -15 -9 -12 -25
5 -25 8 0 15 7 15 15 0 8 5 15 11 15 5 0 8 -4 5 -9 -20 -32 45 -58 104 -41 18
5 30 5 30 -1 0 -5 21 -9 48 -9 29 0 57 -7 72 -17 49 -35 95 -53 132 -53 23 0
51 -9 74 -25 20 -14 45 -25 56 -25 11 0 29 -5 41 -11 16 -9 22 -9 25 0 7 20
22 0 22 -30 0 -20 5 -29 16 -29 11 0 14 6 10 18 -5 15 -4 15 7 -1 7 -10 31
-44 53 -75 48 -66 74 -142 74 -221 0 -31 -10 -128 -22 -217 l-22 -161 -53 24
c-63 29 -169 59 -240 69 -29 3 -50 10 -47 15 3 5 -2 9 -10 9 -9 0 -16 -7 -16
-15 0 -19 -2 -19 -62 3 -27 9 -73 36 -101 60 -60 49 -116 77 -239 120 -165 58
-308 78 -327 45 -9 -16 -10 -16 -11 4 0 40 -64 56 -118 30 -21 -10 -48 -10
-122 -2 -107 12 -107 24 2 31 69 5 73 7 108 47 26 29 51 46 81 54 42 12 115
63 90 63 -16 0 -5 17 21 31 18 10 20 9 15 -5 -4 -10 -3 -15 3 -11 6 3 10 17
10 31 0 24 -1 24 -24 9 -13 -9 -26 -12 -29 -8 -8 13 20 46 32 38 6 -3 11 1 11
9 0 9 5 16 11 16 5 0 7 -4 4 -10 -11 -18 17 -11 31 8 18 23 17 35 -1 28 -8 -3
-14 -2 -13 2 1 4 -3 16 -7 26 -6 13 -4 21 4 24 7 2 24 15 39 29 l27 24 -30 -7
c-16 -4 -40 -7 -51 -7 -28 1 -79 -40 -70 -55 4 -7 16 -12 27 -12 22 0 55 -27
45 -37 -3 -4 -12 -1 -18 5 -7 7 -20 12 -30 12 -24 0 -93 -63 -119 -109 -12
-20 -37 -49 -55 -65 -34 -28 -35 -28 -56 -10 -20 19 -21 19 -14 -3 4 -13 1
-33 -8 -50 -12 -23 -15 -24 -16 -9 0 18 -3 17 -28 -7 -23 -22 -72 -38 -72 -23
0 14 31 60 49 72 15 11 21 26 21 53 0 21 7 52 15 67 8 16 15 36 15 45 0 8 7
24 16 35 14 18 15 18 9 -6 l-6 -25 20 25 c11 14 21 32 21 40 0 12 2 12 9 2 6
-10 10 -9 14 7 3 12 12 21 20 21 8 0 17 13 20 29 6 27 11 30 54 37 26 3 55 10
63 14 8 4 21 5 29 2 11 -4 11 -6 0 -13 -30 -18 2 -19 50 0 28 10 54 15 57 10
7 -13 40 6 99 58 27 23 64 48 82 54 22 7 33 17 33 30 0 27 5 24 29 -15z m-349
5 c0 -6 -5 -13 -10 -16 -6 -4 -8 -15 -5 -25 3 -10 -1 -25 -10 -34 -18 -18 -55
-22 -55 -6 0 19 -21 10 -32 -15 -12 -28 -38 -34 -38 -9 0 10 -8 15 -22 14 -37
-3 -41 -1 -28 15 6 8 27 14 45 13 37 -1 61 13 70 43 4 13 13 18 23 15 9 -3 24
-1 32 4 19 12 30 13 30 1z m449 -13 c16 -20 21 -20 49 -9 29 12 33 11 72 -20
34 -27 44 -31 59 -22 11 7 23 8 32 2 8 -5 22 -6 32 -3 22 7 63 -19 71 -44 4
-11 24 -26 46 -35 38 -15 41 -15 55 6 8 12 15 42 16 67 0 34 2 40 9 25 8 -22
40 -53 40 -39 0 4 13 -5 29 -20 16 -16 34 -26 39 -22 8 5 72 -55 72 -68 0 -3
14 -28 30 -57 30 -50 31 -54 24 -138 l-7 -86 -15 35 c-26 65 -163 232 -177
218 -9 -9 -93 19 -125 42 -17 12 -44 20 -70 20 -31 0 -57 9 -94 32 -44 27 -66
33 -156 42 -117 12 -110 5 -72 74 16 27 19 27 41 0z m-565 -3 c-4 -8 -13 -15
-22 -15 -13 0 -12 3 4 15 24 18 25 18 18 0z m153 -21 c8 -22 -15 -44 -26 -25
-10 16 -4 41 10 41 5 0 12 -7 16 -16z m93 -56 c0 -5 -14 -8 -31 -8 -17 0 -39
-5 -51 -11 -29 -16 -36 -1 -7 19 49 35 63 39 76 23 7 -9 13 -19 13 -23z m-310
-23 c-7 -9 -15 -13 -17 -11 -7 7 7 26 19 26 6 0 6 -6 -2 -15z m-1 -32 c18 4
19 2 10 -14 -10 -19 -10 -19 -36 1 -14 11 -30 17 -37 13 -6 -4 -4 1 3 11 14
17 16 17 28 1 7 -11 20 -16 32 -12z m-32 -39 c3 -8 -2 -23 -11 -32 -10 -10
-16 -12 -16 -4 0 7 5 12 10 12 6 0 10 5 10 10 0 6 -7 10 -16 10 -8 0 -12 5 -9
10 9 15 25 12 32 -6z m-47 -38 c0 -12 -5 -27 -11 -33 -18 -18 -59 -125 -59
-154 0 -14 -9 -34 -20 -44 -33 -30 -60 -145 -37 -163 7 -6 34 -12 60 -13 45
-3 62 -18 37 -34 -5 -3 -16 -27 -23 -52 -14 -49 -37 -70 -37 -34 0 24 -36 98
-62 127 -18 21 -19 24 -3 85 15 59 101 285 126 330 12 24 29 16 29 -15z m224
-134 c0 -21 -4 -44 -8 -51 -9 -14 -75 -45 -82 -39 -6 6 80 128 90 128 1 0 1
-17 0 -38z m-164 -145 c0 -2 -10 -12 -21 -23 -22 -19 -22 -19 -10 4 10 18 31
31 31 19z m1325 -277 l-15 -65 5 65 c3 36 8 97 13 135 l7 70 3 -70 c1 -38 -4
-99 -13 -135z m-1097 118 c-3 -7 -11 -13 -18 -13 -7 0 -15 6 -17 13 -3 7 4 12
17 12 13 0 20 -5 18 -12z m126 4 l40 -7 -56 -18 c-31 -9 -61 -24 -68 -32 -17
-20 -4 -19 66 5 89 31 131 30 160 -3 13 -16 28 -26 33 -23 9 6 24 -35 16 -43
-3 -2 -13 3 -22 11 -35 29 -81 41 -131 33 -26 -4 -69 -9 -97 -10 -27 -1 -54
-3 -59 -4 -6 0 2 -13 16 -28 14 -16 29 -37 32 -49 10 -33 121 -74 202 -74 60
0 134 28 146 55 8 19 6 31 -12 59 -26 43 -19 45 32 10 69 -48 60 -82 -50 -202
-57 -61 -72 -64 -208 -32 -110 26 -169 66 -185 124 -21 76 5 179 55 218 23 19
32 20 90 10z m230 -134 c-10 -16 -22 -7 -17 13 4 15 8 17 14 8 4 -7 5 -17 3
-21z m-199 -7 c28 -6 60 -13 71 -17 16 -4 23 0 27 15 3 12 12 21 21 21 21 0
33 -29 17 -40 -9 -5 -8 -9 4 -14 29 -11 54 -7 64 11 11 20 26 11 18 -10 -6
-17 -72 -31 -90 -20 -6 4 -24 6 -39 4 -32 -3 -98 14 -155 41 -48 23 -58 41
-15 28 15 -5 50 -13 77 -19z m62 23 c-3 -3 -12 -4 -19 -1 -8 3 -5 6 6 6 11 1
17 -2 13 -5z m297 -101 c-26 -19 -36 -16 -24 7 6 12 16 17 27 13 14 -6 14 -8
-3 -20z m103 -39 c-9 -9 -28 6 -21 18 4 6 10 6 17 -1 6 -6 8 -13 4 -17z m67
11 c-5 -11 2 -13 33 -8 21 3 40 10 41 15 6 13 28 9 42 -7 7 -8 16 -12 21 -10
21 14 65 -96 50 -124 -7 -12 -11 -8 -18 19 -14 54 -60 80 -144 80 -38 0 -69 3
-69 7 0 10 32 43 41 43 5 0 6 -7 3 -15z m-114 -15 c14 -14 20 -34 21 -67 0
-76 8 -133 25 -206 9 -37 14 -81 10 -97 -4 -23 -2 -30 10 -30 8 0 22 -16 30
-37 12 -29 13 -41 4 -58 -10 -18 -9 -28 4 -53 21 -40 21 -92 1 -92 -8 0 -15 5
-15 10 0 6 -8 10 -19 10 -10 0 -37 17 -59 39 -22 21 -57 44 -78 51 -22 7 -43
19 -49 27 -5 7 -40 24 -76 37 -36 13 -79 30 -95 38 -40 21 -114 36 -204 43
-41 3 -87 11 -102 17 -32 12 -39 48 -10 48 10 0 27 7 39 15 15 10 24 12 28 5
7 -11 55 33 55 49 0 15 37 41 67 47 25 5 34 2 47 -17 9 -13 16 -36 16 -51 0
-16 6 -28 13 -29 6 0 2 -5 -10 -11 -28 -13 -30 -28 -4 -28 10 0 24 -7 31 -15
7 -8 18 -15 24 -15 7 0 36 -16 66 -35 32 -20 68 -35 86 -35 16 0 39 -7 50 -15
32 -24 60 -18 93 22 17 21 31 40 31 43 -1 3 -9 16 -20 29 l-20 23 -40 -21
c-38 -19 -43 -20 -79 -5 -40 16 -68 52 -58 77 3 8 -2 22 -12 31 -20 18 -36 10
-20 -11 14 -16 0 -17 -56 -2 -82 22 -79 57 12 113 32 19 76 52 97 73 66 63
117 103 132 103 8 0 23 -9 34 -20z m390 -40 c14 -10 24 -23 23 -28 -2 -6 -5
-28 -9 -50 l-6 -39 43 -7 c43 -7 67 3 55 23 -4 6 -23 11 -42 11 -19 0 -34 2
-34 4 0 1 5 17 11 34 l11 32 29 -21 c44 -31 46 -59 9 -127 -37 -69 -83 -120
-116 -128 -53 -14 -212 40 -271 90 -36 32 -37 36 -41 107 l-3 74 23 -30 c60
-79 148 -136 180 -116 10 6 25 11 34 11 18 0 75 30 87 45 12 16 -2 57 -35 104
l-31 44 29 -7 c16 -4 40 -15 54 -26z m-304 -17 c-6 -6 -36 9 -36 18 0 5 9 4
20 -3 10 -7 18 -14 16 -15z m160 -47 c-5 -28 -2 -34 26 -51 32 -19 32 -20 9
-23 -13 -2 -28 1 -34 7 -6 6 -19 11 -29 11 -10 0 -18 5 -18 12 0 6 -3 9 -6 5
-3 -3 -15 3 -27 13 -12 11 -31 26 -42 34 -30 22 -8 33 26 13 41 -23 70 -22 76
3 8 32 25 11 19 -24z m94 -21 c0 -15 -6 -25 -15 -25 -12 0 -13 4 -3 25 6 14
13 25 15 25 1 0 3 -11 3 -25z m220 -25 c0 -4 -7 -10 -15 -14 -10 -4 -15 1 -15
14 0 13 5 18 15 14 8 -4 15 -10 15 -14z m-737 -213 c58 -57 40 -62 -46 -11
-34 20 -69 39 -77 44 -8 4 -16 14 -18 22 -3 13 4 14 45 4 35 -9 61 -24 96 -59z
m274 -19 c-3 -7 -5 -2 -5 12 0 14 2 19 5 13 2 -7 2 -19 0 -25z m-107 -12 c0
-21 -38 -45 -61 -39 -27 7 -24 17 14 36 41 20 47 20 47 3z m-460 -46 c-6 -11
-16 -20 -23 -20 -7 0 -18 9 -25 20 -11 19 -10 20 23 20 33 0 35 -2 25 -20z
m127 -25 c23 -19 50 -35 61 -35 11 0 29 -11 40 -25 13 -17 30 -25 50 -25 26 0
31 -4 35 -27 4 -27 4 -27 12 -5 4 12 11 22 15 22 14 0 70 -22 70 -28 0 -3 -12
-20 -26 -39 -24 -32 -28 -34 -72 -28 -26 4 -59 15 -74 26 -15 10 -36 19 -47
19 -11 0 -28 11 -37 25 -10 15 -26 25 -40 25 -13 0 -24 5 -24 10 0 6 -7 10
-16 10 -20 0 -64 45 -64 65 0 17 38 45 60 45 9 0 35 -16 57 -35z m202 -66 c3
-11 1 -11 -10 -2 -8 6 -25 13 -38 15 -14 1 -26 9 -28 15 -4 10 4 9 33 -1 21
-7 40 -19 43 -27z m136 -76 c23 -26 24 -28 6 -35 -11 -3 -28 -4 -39 -1 -17 4
-18 8 -9 34 6 16 12 29 14 29 1 0 14 -12 28 -27z m54 -270 c-37 -40 -83 -82
-91 -83 -4 0 0 16 9 35 9 19 22 35 29 35 6 0 22 9 35 20 35 28 46 24 18 -7z
m-287 -183 c9 0 24 -3 33 -6 14 -6 13 -10 -11 -30 -29 -26 -54 -18 -54 17 0
10 -4 21 -10 24 -5 3 -10 11 -10 17 0 6 8 4 18 -5 10 -10 26 -17 34 -17z m176
-117 c32 -21 81 -49 109 -62 l52 -24 -25 -19 c-18 -15 -24 -29 -24 -59 0 -51
-11 -46 -86 45 -31 38 -65 71 -75 73 -15 4 -19 15 -19 44 0 22 2 39 5 39 2 0
31 -17 63 -37z m-46 -207 c2 -19 0 -32 -4 -30 -8 5 -12 64 -4 64 2 0 6 -15 8
-34z m585 -12 c66 -28 23 -24 -49 5 -16 6 -28 13 -28 16 0 7 27 -1 77 -21z"/>
<path d="M1543 2173 c-7 -3 -13 -10 -13 -18 0 -7 -7 -18 -15 -25 -22 -19 -18
-32 6 -19 12 6 24 20 26 30 6 21 11 23 31 10 10 -6 3 -19 -27 -52 -40 -43 -60
-84 -47 -96 3 -3 9 3 13 13 9 24 46 60 84 79 33 18 38 30 9 22 -16 -4 -20 -1
-16 11 9 28 -22 55 -51 45z m37 -77 c0 -3 -4 -8 -10 -11 -5 -3 -10 -1 -10 4 0
6 5 11 10 11 6 0 10 -2 10 -4z"/>
<path d="M1975 2080 c-3 -5 1 -10 10 -10 9 0 13 5 10 10 -3 6 -8 10 -10 10 -2
0 -7 -4 -10 -10z"/>
<path d="M1453 2045 c-9 -19 -21 -31 -26 -28 -5 3 -8 0 -6 -6 8 -24 24 -15 47
27 13 23 19 42 13 42 -6 0 -19 -16 -28 -35z"/>
<path d="M1458 1965 c-16 -31 -14 -55 3 -55 6 0 7 5 4 10 -4 6 -1 17 5 25 6 8
10 22 8 32 -3 14 -7 12 -20 -12z"/>
<path d="M1743 1820 c-51 -30 -43 -51 11 -30 36 13 140 -6 214 -40 63 -29 76
-41 45 -38 -10 1 -34 0 -53 -1 -27 -1 -31 -4 -20 -11 8 -5 25 -10 38 -10 12 0
40 -9 62 -20 22 -11 50 -20 62 -19 23 0 23 0 2 9 -24 9 -39 28 -31 36 9 9 55
-26 59 -44 4 -13 16 -17 53 -17 30 0 50 5 52 13 3 6 -3 12 -12 12 -12 0 -14 4
-5 19 14 28 13 33 -8 22 -14 -8 -24 -1 -52 39 -19 26 -38 46 -42 44 -3 -2 -29
8 -57 22 -42 22 -53 24 -66 14 -12 -10 -15 -10 -15 4 0 14 -15 16 -102 16 -85
0 -109 -4 -135 -20z m222 -20 c8 -13 -15 -13 -35 0 -12 8 -11 10 7 10 12 0 25
-4 28 -10z m109 -34 c46 -25 103 -82 93 -93 -4 -3 -22 9 -42 26 -25 22 -41 29
-51 23 -11 -6 -25 1 -50 26 -19 19 -34 36 -34 38 0 12 45 1 84 -20z"/>
<path d="M2458 1613 c-15 -21 -66 -27 -85 -12 -9 8 -14 7 -19 -5 -3 -9 -10
-16 -15 -16 -4 0 -6 7 -3 15 4 8 3 15 0 15 -7 0 -46 -38 -46 -44 0 -2 16 -7
35 -10 19 -4 35 -11 35 -16 0 -6 5 -10 10 -10 6 0 10 9 10 19 0 11 5 23 10 26
6 3 10 -4 10 -15 0 -19 4 -21 25 -16 14 4 25 2 25 -3 0 -5 8 -11 18 -14 11 -2
6 -7 -18 -15 -31 -9 -26 -10 50 -10 86 1 138 -14 184 -52 18 -14 19 -13 12 19
-8 42 -23 61 -47 61 -11 0 -19 5 -19 11 0 5 5 7 12 3 7 -4 8 -3 4 4 -4 7 -12
12 -18 12 -6 0 -17 8 -24 17 -9 13 -26 18 -63 18 -53 0 -59 3 -39 23 9 9 7 12
-9 12 -12 0 -28 -8 -35 -17z m110 -55 c47 -14 39 -28 -15 -25 -50 3 -93 21
-93 38 0 11 51 5 108 -13z"/>
<path d="M2217 1613 c-12 -11 -8 -23 8 -23 8 0 15 7 15 15 0 16 -12 20 -23 8z"/>
<path d="M2639 1222 c-16 -19 -36 -102 -25 -102 11 0 47 82 44 101 -3 20 -3
20 -19 1z"/>
<path d="M1116 1717 c-14 -18 -32 -60 -41 -92 -17 -63 -22 -238 -10 -310 19
-116 62 -184 105 -170 l22 7 -6 -118 c-8 -127 -14 -158 -53 -244 -51 -112 -42
-210 51 -536 72 -251 69 -244 123 -244 27 0 42 4 38 10 -4 6 -11 8 -16 4 -5
-3 -8 -2 -7 3 2 4 -2 22 -9 38 -6 17 -15 39 -19 50 -4 11 -9 34 -11 50 -2 17
-5 39 -7 50 -2 11 -4 28 -5 37 -1 11 -6 15 -16 12 -11 -5 -15 1 -15 19 0 13
-6 40 -14 58 -8 20 -10 43 -6 54 5 13 1 28 -11 43 -31 40 -61 132 -53 165 4
20 3 27 -5 23 -8 -5 -11 10 -11 48 0 31 4 56 8 56 5 0 15 12 22 28 26 50 31
54 47 35 14 -17 14 -17 9 0 -3 9 -9 24 -12 32 -4 8 -1 15 6 15 10 0 10 3 1 14
-7 8 -9 25 -5 40 3 15 1 32 -6 40 -8 10 -8 20 -1 33 21 40 11 456 -11 470 -6
3 -8 -6 -3 -26 4 -21 3 -31 -6 -31 -15 0 -6 -80 11 -90 8 -5 10 -19 5 -41 -16
-74 -36 -86 -75 -44 -13 14 -18 25 -11 25 7 0 10 4 7 9 -3 4 1 17 9 27 19 25
19 35 0 28 -11 -5 -15 1 -15 19 0 13 -7 30 -15 37 -38 31 -4 228 54 308 25 36
26 48 5 56 -9 4 -14 13 -10 21 10 26 -12 16 -38 -18z m17 -42 c-3 -9 -8 -14
-10 -11 -3 3 -2 9 2 15 9 16 15 13 8 -4z m57 -1278 c0 -10 -4 -15 -10 -12 -5
3 -10 18 -10 33 0 21 2 24 10 12 5 -8 10 -23 10 -33z m59 -216 l-1 -36 -13 35
c-7 19 -14 44 -14 55 0 20 0 20 14 1 8 -11 15 -36 14 -55z"/>
<path d="M1197 1657 c-7 -18 3 -67 14 -67 12 0 12 67 0 74 -5 3 -11 0 -14 -7z"/>
<path d="M1194 1555 c-23 -15 -54 -73 -54 -99 0 -26 30 -18 67 19 25 25 34 41
31 61 -4 33 -17 39 -44 19z"/>
<path d="M1290 1449 c0 -5 5 -7 10 -4 6 3 10 8 10 11 0 2 -4 4 -10 4 -5 0 -10
-5 -10 -11z"/>
<path d="M1275 1390 c-3 -5 -1 -10 4 -10 6 0 11 5 11 10 0 6 -2 10 -4 10 -3 0
-8 -4 -11 -10z"/>
<path d="M1265 1340 c-3 -5 -1 -10 4 -10 6 0 11 5 11 10 0 6 -2 10 -4 10 -3 0
-8 -4 -11 -10z"/>
<path d="M1263 1290 c2 -13 9 -26 16 -28 10 -3 10 0 1 19 -18 34 -21 36 -17 9z"/>
<path d="M1500 1220 c0 -5 5 -10 11 -10 5 0 7 5 4 10 -3 6 -8 10 -11 10 -2 0
-4 -4 -4 -10z"/>
<path d="M1260 1200 c0 -17 38 -53 49 -46 6 4 0 17 -13 31 -25 27 -36 31 -36
15z"/>
<path d="M1450 1074 c-10 -11 -9 -14 6 -14 18 -1 18 -1 2 -14 -22 -16 -23 -26
-3 -26 8 0 15 -5 15 -11 0 -5 -5 -7 -12 -3 -8 5 -9 2 -4 -12 4 -10 10 -31 13
-46 3 -15 9 -25 13 -23 13 8 40 -6 40 -21 0 -8 -4 -14 -10 -14 -13 0 -13 -27
0 -35 5 -3 18 3 29 14 13 13 27 18 37 14 12 -4 15 -2 12 8 -2 8 -14 15 -26 17
-31 5 -74 95 -73 154 0 22 -25 30 -39 12z"/>
<path d="M1237 972 c-11 -2 -16 -10 -13 -20 3 -9 8 -34 12 -54 7 -40 10 -43
34 -28 12 8 11 14 -9 41 -17 23 -20 33 -11 39 18 11 8 26 -13 22z"/>
<path d="M1630 912 c0 -19 12 -42 22 -42 14 0 5 43 -9 48 -7 2 -13 -1 -13 -6z"/>
<path d="M1771 871 c36 -64 87 -109 168 -148 41 -20 71 -38 65 -40 -12 -4
-162 53 -181 69 -10 8 -13 6 -13 -6 0 -9 -7 -16 -15 -16 -8 0 -15 -4 -15 -10
0 -5 11 -10 23 -10 16 0 28 -9 35 -25 6 -14 18 -25 25 -25 8 0 45 -14 83 -31
113 -52 169 -43 231 38 l24 31 -69 0 c-116 1 -210 48 -319 159 -29 29 -56 53
-59 53 -3 0 5 -18 17 -39z m321 -208 c37 -5 39 -7 23 -20 -20 -14 -81 -18
-110 -7 -14 6 -14 8 1 26 10 10 24 16 32 13 7 -3 32 -8 54 -12z"/>
<path d="M1283 852 c-24 -15 -18 -92 7 -92 16 0 23 42 9 51 -11 6 -11 11 -1
21 22 22 12 37 -15 20z"/>
<path d="M1531 845 c-23 -12 -23 -13 -5 -19 16 -5 19 -13 17 -39 -4 -34 11
-67 24 -54 4 4 2 16 -4 26 -7 11 -8 23 -2 32 11 17 12 56 1 63 -4 2 -18 -2
-31 -9z"/>
<path d="M1710 800 c0 -25 24 -70 39 -70 4 0 8 16 8 37 1 23 -2 31 -7 22 -10
-15 -12 -14 -28 16 -11 19 -11 19 -12 -5z"/>
<path d="M1030 770 c-19 -10 -82 -62 -140 -115 -141 -131 -181 -156 -351 -219
-79 -29 -164 -62 -189 -73 -25 -11 -106 -37 -180 -58 -159 -45 -170 -49 -170
-76 0 -13 4 -18 12 -13 6 4 25 8 42 9 17 1 42 6 56 10 22 8 24 7 12 -8 -8 -9
-23 -17 -35 -19 -14 -2 -21 -10 -21 -21 2 -20 -12 -23 -20 -4 -3 6 -5 4 -3 -7
1 -10 13 -26 26 -35 23 -15 24 -15 19 4 -3 11 -7 25 -9 30 -2 6 0 10 6 10 5 0
9 -3 8 -7 -2 -4 6 -6 17 -5 11 1 20 4 20 8 0 4 9 11 20 14 11 3 20 13 20 21 0
11 6 13 21 9 14 -5 27 0 40 14 25 27 38 27 48 -1 9 -23 9 -23 20 5 9 23 33 39
127 83 63 30 138 59 166 64 27 6 53 12 58 15 5 3 11 1 15 -5 3 -5 1 -10 -4
-10 -6 0 -10 -10 -10 -22 1 -18 2 -19 6 -5 7 27 46 18 54 -13 4 -16 7 -19 8
-7 1 9 8 17 17 17 13 0 14 3 5 14 -10 11 -8 16 9 21 12 4 22 5 23 3 17 -29 25
-73 16 -85 -8 -9 -8 -13 0 -13 6 0 11 -7 11 -15 0 -8 -9 -15 -20 -15 -25 0
-27 -20 -2 -20 15 -1 15 -2 -2 -15 -15 -12 -22 -12 -27 -3 -5 7 -11 9 -15 5
-4 -4 4 -20 19 -35 19 -20 24 -31 17 -42 -5 -8 -10 -32 -10 -52 0 -29 -4 -38
-17 -38 -15 0 -15 -2 -4 -9 8 -5 11 -16 8 -24 -4 -11 0 -13 14 -10 12 4 19 1
17 -7 -2 -7 11 -13 35 -14 l37 -3 0 76 c0 89 51 396 79 475 19 55 66 131 96
156 25 21 56 68 48 73 -5 3 -24 -3 -43 -13z m-94 -133 c-13 -23 -33 -74 -45
-112 -27 -90 -71 -362 -71 -437 0 -57 -8 -70 -28 -45 -11 14 9 191 25 223 11
20 11 39 -1 94 -14 62 -57 90 -86 55 -11 -13 -15 -13 -41 1 -16 8 -29 18 -29
22 0 4 24 19 53 34 29 16 95 68 147 117 52 50 96 90 97 91 2 0 -8 -19 -21 -43z
m-638 -343 c-9 -10 -21 -13 -29 -8 -9 5 -8 9 7 15 31 12 39 10 22 -7z m-77
-24 c-12 -11 -27 -17 -32 -14 -6 3 -16 1 -24 -6 -9 -7 -15 -8 -20 0 -7 11 -2
13 55 29 48 13 48 13 21 -9z m554 -60 c3 -5 1 -10 -4 -10 -6 0 -11 5 -11 10 0
6 2 10 4 10 3 0 8 -4 11 -10z"/>
<path d="M1557 712 c-23 -25 -22 -39 1 -19 21 19 38 11 21 -9 -14 -18 6 -55
26 -48 17 7 21 64 5 64 -5 0 -10 7 -10 15 0 21 -23 19 -43 -3z"/>
<path d="M1612 618 c-16 -16 -15 -28 3 -28 14 0 19 -19 18 -72 0 -22 10 -23
27 -3 17 21 30 19 30 -5 0 -23 28 -27 36 -5 4 8 15 15 26 15 17 0 17 -2 -6
-24 -33 -29 -33 -38 -1 -30 15 4 25 2 25 -5 0 -6 7 -11 15 -11 8 0 15 -4 15
-10 0 -5 11 -10 25 -10 13 0 33 -10 45 -22 l20 -22 0 22 c0 12 4 22 9 22 10 0
24 30 17 37 -2 3 -18 -2 -34 -11 -28 -15 -30 -14 -25 3 5 21 -24 54 -42 47 -7
-2 -15 5 -18 16 -4 14 -11 19 -21 15 -11 -4 -16 -1 -16 10 0 13 -3 13 -15 3
-12 -10 -15 -10 -15 3 0 8 -7 18 -16 21 -8 3 -13 10 -10 15 9 14 -22 34 -44
28 -11 -3 -20 -1 -20 4 0 13 -14 11 -28 -3z m70 -58 c5 0 6 -4 3 -10 -3 -5
-10 -10 -14 -10 -11 0 -31 47 -23 55 4 3 11 -3 16 -14 5 -12 13 -21 18 -21z"/>
<path d="M1410 433 c0 -13 5 -23 10 -23 13 0 13 11 0 30 -8 12 -10 11 -10 -7z"/>
<path d="M1710 380 c0 -5 5 -10 11 -10 5 0 7 5 4 10 -3 6 -8 10 -11 10 -2 0
-4 -4 -4 -10z"/>
<path d="M508 342 c-16 -9 -28 -19 -28 -23 0 -3 -11 -22 -24 -42 -17 -24 -21
-37 -13 -41 7 -2 4 -5 -5 -5 -10 -1 -18 -8 -18 -16 0 -34 33 -10 70 50 12 19
34 42 48 50 22 11 23 14 8 15 -15 0 -16 3 -6 15 16 20 2 19 -32 -3z"/>
<path d="M1360 343 c0 -13 5 -23 10 -23 13 0 13 11 0 30 -8 12 -10 11 -10 -7z"/>
<path d="M1775 350 c-3 -5 -1 -10 4 -10 6 0 11 5 11 10 0 6 -2 10 -4 10 -3 0
-8 -4 -11 -10z"/>
<path d="M2040 238 c-13 -35 -38 -100 -57 -146 -20 -46 -32 -86 -28 -90 4 -4
20 8 36 26 16 17 33 32 37 32 5 0 19 40 30 88 37 148 24 207 -18 90z"/>
<path d="M1955 268 c-36 -19 -75 -61 -75 -80 0 -25 21 -23 27 3 4 14 12 19 24
16 14 -4 19 0 19 14 0 10 9 23 20 29 11 6 20 15 20 20 0 13 -10 12 -35 -2z"/>
<path d="M920 197 c0 -7 7 -22 15 -33 8 -10 15 -34 15 -52 0 -28 3 -32 17 -24
25 15 24 42 -3 75 -13 15 -24 33 -24 38 0 5 -4 9 -10 9 -5 0 -10 -6 -10 -13z"/>
<path d="M1786 191 c-3 -5 7 -11 22 -14 30 -6 45 0 37 14 -8 12 -52 12 -59 0z"/>
<path d="M1883 153 c-7 -3 -13 -11 -13 -18 0 -13 -35 -28 -59 -25 -7 1 -10 -4
-6 -10 4 -7 1 -10 -8 -8 -9 2 -17 -1 -19 -7 -2 -5 12 -11 31 -13 26 -3 40 2
58 22 13 14 28 26 33 26 12 0 13 27 3 33 -5 2 -14 2 -20 0z"/>
<path d="M1509 133 c18 -34 46 -50 69 -42 30 11 28 24 -4 25 -14 1 -33 9 -43
18 -23 21 -34 20 -22 -1z"/>
<path d="M358 100 c-3 -17 -1 -30 3 -30 11 0 50 52 44 59 -4 3 -10 -1 -15 -9
-7 -10 -10 -11 -10 -2 0 25 -18 11 -22 -18z"/>
<path d="M2984 63 c-12 -60 -9 -78 6 -53 9 13 15 110 7 110 -1 0 -8 -26 -13
-57z"/>
<path d="M982 78 c-18 -18 -14 -34 13 -52 34 -22 36 -21 23 17 -14 42 -22 49
-36 35z"/>
<path d="M2550 42 c0 -7 17 -18 63 -40 4 -2 7 1 7 7 0 5 -14 17 -32 25 -36 18
-38 19 -38 8z"/>
<path d="M2453 25 c3 -23 43 -33 60 -16 8 8 2 11 -20 11 -17 0 -34 6 -37 13
-3 6 -5 3 -3 -8z"/>
</g>
</svg>
