<?xml version="1.0" standalone="no"?>
<!DOCTYPE svg PUBLIC "-//W3C//DTD SVG 20010904//EN"
 "http://www.w3.org/TR/2001/REC-SVG-20010904/DTD/svg10.dtd">
<svg version="1.0" xmlns="http://www.w3.org/2000/svg"
 width="44.000000pt" height="44.000000pt" viewBox="0 0 44.000000 44.000000"
 preserveAspectRatio="xMidYMid meet">
<metadata>
Created by potrace 1.10, written by Peter Selinger 2001-2011
</metadata>
<g transform="translate(0.000000,44.000000) scale(0.050000,-0.050000)"
fill="#076577" stroke="none">
<path d="M240 826 c-301 -159 -320 -577 -33 -755 210 -129 474 -69 602 136
234 380 -175 826 -569 619z m340 -208 l80 -83 0 -177 0 -178 -220 0 -220 0 0
260 0 260 140 0 c138 0 141 -1 220 -82z"/>
<path d="M300 440 l0 -180 140 0 140 0 0 120 c0 120 0 120 -60 120 -53 0 -60
7 -60 60 0 57 -4 60 -80 60 l-80 0 0 -180z"/>
</g>
</svg>
