<?xml version="1.0" standalone="no"?>
<!DOCTYPE svg PUBLIC "-//W3C//DTD SVG 20010904//EN"
 "http://www.w3.org/TR/2001/REC-SVG-20010904/DTD/svg10.dtd">
<svg version="1.0" xmlns="http://www.w3.org/2000/svg"
 width="300.000000pt" height="377.000000pt" viewBox="0 0 300.000000 377.000000"
 preserveAspectRatio="xMidYMid meet">
<metadata>
Created by potrace 1.10, written by Peter Selinger 2001-2011
</metadata>
<g transform="translate(0.000000,377.000000) scale(0.100000,-0.100000)"
fill="#7c979e" stroke="none">
<path d="M1423 3550 c-4 -5 -30 -11 -58 -14 -74 -9 -87 -11 -118 -24 -16 -7
-33 -12 -38 -12 -13 0 -61 -31 -76 -50 -7 -8 -13 -11 -13 -7 0 5 -16 -1 -35
-13 -19 -12 -39 -19 -45 -15 -5 3 -10 -1 -10 -9 0 -9 -6 -16 -13 -16 -16 0
-201 -183 -244 -242 -36 -49 -103 -171 -162 -293 -21 -44 -56 -109 -78 -145
-41 -68 -73 -171 -73 -238 l0 -38 -112 -25 -113 -24 -3 -55 c-3 -55 -3 -56 30
-65 27 -8 33 -15 34 -41 2 -35 34 -147 70 -245 47 -126 113 -158 349 -166 166
-7 320 9 376 37 43 22 44 20 33 -38 -4 -17 -24 -49 -45 -71 -67 -72 -93 -167
-61 -228 18 -32 71 -73 96 -73 12 0 27 -5 33 -11 8 -8 13 -8 17 0 11 17 -3 31
-30 31 -83 0 -138 95 -102 177 7 15 21 37 31 48 46 49 67 84 76 127 6 25 52
124 102 219 66 127 91 185 93 216 2 29 -2 44 -12 48 -9 3 -12 0 -9 -8 7 -19
-87 -233 -101 -230 -7 2 -9 -4 -5 -14 4 -11 3 -14 -5 -9 -7 4 -16 -2 -22 -16
-60 -136 -143 -171 -405 -171 -220 0 -266 11 -331 77 -47 47 -53 58 -69 130
-15 68 -16 92 -6 165 6 52 18 96 29 111 38 53 190 107 310 111 37 1 76 5 87
10 24 9 20 10 -77 10 -43 1 -78 3 -78 6 0 3 9 21 21 39 29 47 8 43 -25 -5 -21
-29 -36 -41 -64 -46 -20 -3 -47 -9 -60 -12 -24 -6 -23 -3 5 67 3 8 5 35 5 60
-1 31 1 39 6 26 6 -13 11 -16 16 -8 4 6 2 21 -4 32 -8 16 -8 20 4 20 8 0 17 6
20 13 3 6 3 2 1 -10 -3 -12 -1 -24 5 -28 5 -3 10 2 10 14 0 10 3 27 7 37 4 12
3 15 -5 10 -7 -4 -12 -3 -12 3 0 5 6 14 14 18 7 4 18 31 24 59 6 28 40 110 76
182 74 149 167 269 216 279 21 4 27 9 22 22 -5 13 -3 14 9 4 12 -10 20 -9 37
3 12 8 22 12 22 7 0 -4 5 -1 10 7 5 8 15 15 21 15 7 0 14 6 17 14 3 10 0 12
-13 7 -10 -3 -23 -1 -31 4 -10 9 -4 19 26 46 22 20 44 33 50 29 6 -4 26 5 45
19 18 14 37 26 40 26 4 0 13 7 22 15 9 9 23 13 34 10 11 -4 19 -2 19 4 0 6 14
11 30 11 20 0 30 5 30 15 0 23 60 20 61 -2 0 -13 4 -12 12 7 12 26 31 31 56
16 11 -7 13 -5 9 5 -5 12 3 15 32 15 30 0 37 -3 33 -15 -3 -11 0 -10 11 3 9
11 16 14 16 8 0 -16 33 -15 49 1 10 10 11 8 5 -6 -6 -17 -5 -18 15 -6 16 11
25 11 40 2 10 -6 35 -10 54 -9 23 2 38 -2 41 -10 3 -8 13 -14 22 -14 13 0 14
3 4 15 -10 12 -10 15 1 15 8 0 29 -21 48 -46 25 -33 36 -41 42 -32 7 11 9 11
9 0 0 -7 5 -10 11 -6 6 3 -2 14 -20 25 -17 10 -31 27 -31 36 1 16 2 16 18 -2
9 -11 23 -20 30 -21 27 -2 30 -5 24 -26 -3 -14 -2 -19 6 -14 7 4 12 14 12 23
0 13 2 13 16 2 9 -7 20 -23 25 -36 5 -13 15 -23 23 -23 8 0 17 -8 19 -17 4
-14 5 -13 6 4 1 16 6 20 21 16 11 -3 20 -10 20 -15 0 -6 -7 -7 -16 -4 -10 4
-14 1 -11 -6 2 -7 16 -13 32 -13 33 0 58 -31 36 -45 -12 -7 -12 -11 -2 -23 8
-10 9 -17 1 -22 -5 -3 -10 -1 -10 4 0 6 -4 11 -9 11 -6 0 -8 -9 -6 -20 3 -17
0 -19 -21 -14 -14 4 -24 2 -24 -4 0 -21 45 -17 66 5 12 13 24 20 27 16 4 -3 7
-1 7 5 0 6 -5 14 -12 18 -8 5 -6 11 6 19 14 11 21 8 44 -14 16 -14 32 -35 36
-46 8 -20 8 -20 16 0 8 19 9 19 9 -2 1 -13 7 -23 15 -23 7 0 16 -10 20 -22 4
-18 8 -20 15 -10 6 10 17 3 43 -30 59 -74 104 -141 133 -195 15 -29 34 -53 42
-53 11 0 14 -7 10 -27 -6 -33 51 -163 63 -143 5 8 9 5 13 -9 3 -12 1 -24 -4
-27 -5 -3 -9 -10 -9 -15 0 -6 4 -8 9 -5 5 3 18 -10 30 -29 11 -19 25 -35 31
-35 6 0 8 -5 4 -12 -4 -7 -3 -8 5 -4 6 4 9 11 6 16 -3 5 -1 11 5 15 5 3 10 14
10 23 -1 15 -2 15 -13 2 -22 -27 -37 -22 -37 13 0 34 -15 70 -44 103 -26 31
-57 104 -42 98 17 -6 83 -94 106 -141 11 -21 19 -32 20 -25 0 6 5 12 11 12 5
0 7 -4 4 -10 -7 -11 20 -97 37 -117 5 -7 7 -16 4 -21 -3 -5 -1 -24 4 -43 18
-63 23 -141 8 -151 -10 -8 -9 -9 3 -5 12 4 16 -2 16 -22 0 -14 3 -40 6 -56 7
-27 6 -28 -6 -13 -8 10 -17 15 -20 11 -4 -3 -7 0 -7 8 0 20 -23 69 -32 69 -14
0 -8 -32 17 -91 37 -87 71 -171 79 -194 7 -19 8 -19 17 -2 6 9 7 22 4 27 -3 5
-8 67 -10 137 -5 141 -14 263 -20 273 -4 7 -14 48 -22 95 -3 17 -11 37 -18 45
-8 8 -17 27 -20 43 -4 15 -20 41 -36 58 -16 17 -36 46 -45 64 -8 18 -40 60
-70 93 -30 33 -54 65 -54 71 0 6 -7 11 -15 11 -8 0 -15 6 -15 13 0 8 -9 22
-21 33 -22 20 -84 107 -108 151 -7 14 -22 28 -32 30 -11 3 -19 9 -19 14 0 14
-81 89 -96 89 -8 0 -14 7 -14 15 0 9 -11 20 -24 25 -13 5 -27 14 -31 19 -3 6
-15 11 -26 11 -10 0 -19 6 -19 14 0 8 -21 22 -47 32 -27 10 -53 21 -59 26 -6
4 -14 5 -17 2 -3 -3 -16 3 -28 15 -13 12 -32 21 -44 21 -11 0 -26 5 -33 12 -7
7 -12 8 -12 3 0 -5 -6 -1 -13 10 -10 12 -16 14 -21 7 -4 -7 -2 -12 3 -12 6 0
11 -5 11 -12 0 -6 -7 -4 -18 5 -10 10 -35 17 -55 17 -20 0 -39 5 -42 10 -4 6
-25 10 -48 10 -23 -1 -79 0 -124 3 -45 2 -85 1 -90 -3z m247 -40 c0 -5 -4 -10
-10 -10 -5 0 -10 5 -10 10 0 6 5 10 10 10 6 0 10 -4 10 -10z m320 -94 c0 -11
-19 -15 -25 -6 -3 5 1 10 9 10 9 0 16 -2 16 -4z m120 -71 c7 -8 8 -15 2 -15
-5 0 -15 7 -22 15 -7 8 -8 15 -2 15 5 0 15 -7 22 -15z m-1126 -60 c-4 -8 -8
-15 -10 -15 -2 0 -4 7 -4 15 0 8 4 15 10 15 5 0 7 -7 4 -15z m1186 5 c0 -5 -7
-10 -16 -10 -8 0 -12 5 -9 10 3 6 10 10 16 10 5 0 9 -4 9 -10z m-1215 -21
c-10 -15 -25 -10 -19 6 4 8 10 12 15 9 5 -3 7 -10 4 -15z m1256 -6 c13 -16 12
-17 -3 -4 -10 7 -18 15 -18 17 0 8 8 3 21 -13z m37 -48 c-3 -3 -9 2 -12 12 -6
14 -5 15 5 6 7 -7 10 -15 7 -18z m262 -318 c0 -6 -11 0 -25 13 -14 13 -25 28
-25 33 0 6 11 0 25 -13 14 -13 25 -28 25 -33z m-1930 -171 c0 -2 -8 -10 -17
-17 -16 -13 -17 -12 -4 4 13 16 21 21 21 13z m-34 -62 c-4 -9 -9 -15 -11 -12
-3 3 -3 13 1 22 4 9 9 15 11 12 3 -3 3 -13 -1 -22z m-56 -244 c0 -5 -7 -10
-16 -10 -8 0 -12 5 -9 10 3 6 10 10 16 10 5 0 9 -4 9 -10z m-72 -36 c-9 -10
-21 -13 -29 -8 -9 5 -8 9 7 15 31 12 39 10 22 -7z m-47 -18 c13 8 11 -8 -4
-27 -7 -9 -19 -14 -27 -12 -12 4 -12 3 -1 -5 10 -7 11 -14 2 -31 -15 -27 -22
-27 -56 5 -26 24 -26 27 -12 42 20 19 81 41 85 30 2 -5 8 -6 13 -2z m-25 -133
c-2 -16 -5 -44 -6 -63 -1 -29 -3 -32 -10 -15 -20 46 -11 96 18 104 1 1 1 -11
-2 -26z m2394 -15 l-1 -33 -14 25 c-18 32 -18 40 0 40 10 0 15 -10 15 -32z
m-1590 -313 c-7 -8 -17 -15 -23 -15 -6 0 -2 8 9 19 22 21 33 19 14 -4z"/>
<path d="M1440 3480 c0 -5 5 -10 10 -10 6 0 10 5 10 10 0 6 -4 10 -10 10 -5 0
-10 -4 -10 -10z"/>
<path d="M1480 3466 c0 -9 5 -16 10 -16 6 0 10 4 10 9 0 6 -4 13 -10 16 -5 3
-10 -1 -10 -9z"/>
<path d="M1680 3461 c0 -6 5 -13 10 -16 6 -3 10 1 10 9 0 9 -4 16 -10 16 -5 0
-10 -4 -10 -9z"/>
<path d="M1732 3439 c-15 -23 -15 -29 -2 -29 6 0 10 6 10 14 0 8 5 16 12 18 7
3 8 7 2 11 -5 3 -15 -3 -22 -14z"/>
<path d="M1405 3430 c3 -5 8 -10 11 -10 2 0 4 5 4 10 0 6 -5 10 -11 10 -5 0
-7 -4 -4 -10z"/>
<path d="M1912 3408 c-15 -15 -16 -38 -1 -38 6 0 9 6 6 14 -3 8 -1 17 6 19 7
2 9 7 6 10 -3 4 -11 1 -17 -5z"/>
<path d="M1195 3400 c3 -5 8 -10 11 -10 2 0 4 5 4 10 0 6 -5 10 -11 10 -5 0
-7 -4 -4 -10z"/>
<path d="M1495 3400 c-3 -5 -1 -10 4 -10 6 0 11 5 11 10 0 6 -2 10 -4 10 -3 0
-8 -4 -11 -10z"/>
<path d="M1790 3400 c0 -5 5 -10 10 -10 6 0 10 5 10 10 0 6 -4 10 -10 10 -5 0
-10 -4 -10 -10z"/>
<path d="M1445 3390 c3 -5 8 -10 11 -10 2 0 4 5 4 10 0 6 -5 10 -11 10 -5 0
-7 -4 -4 -10z"/>
<path d="M1860 3391 c0 -5 5 -13 10 -16 6 -3 10 -2 10 4 0 5 -4 13 -10 16 -5
3 -10 2 -10 -4z"/>
<path d="M1350 3381 c0 -6 9 -9 20 -8 11 1 20 5 20 9 0 4 -9 8 -20 8 -11 0
-20 -4 -20 -9z"/>
<path d="M1635 3380 c3 -5 10 -10 16 -10 5 0 9 5 9 10 0 6 -7 10 -16 10 -8 0
-12 -4 -9 -10z"/>
<path d="M1690 3382 c0 -15 38 -44 44 -34 6 9 -4 20 -31 36 -7 4 -13 3 -13 -2z"/>
<path d="M1610 3365 c7 -8 17 -15 22 -15 5 0 3 7 -6 15 -8 8 -18 15 -22 15 -3
0 -1 -7 6 -15z"/>
<path d="M1770 3366 c0 -9 5 -16 10 -16 6 0 10 4 10 9 0 6 -4 13 -10 16 -5 3
-10 -1 -10 -9z"/>
<path d="M1800 3373 c1 -19 30 -45 44 -40 24 9 8 47 -20 47 -13 0 -24 -3 -24
-7z"/>
<path d="M1926 3355 c-10 -8 -23 -12 -28 -9 -4 3 -11 -2 -14 -10 -3 -9 -12
-16 -20 -16 -8 0 -14 -4 -14 -10 0 -5 11 -10 25 -10 18 0 23 4 19 15 -4 8 -1
15 5 15 6 0 11 -4 11 -10 0 -5 7 -10 15 -10 9 0 12 6 8 16 -3 9 0 20 8 24 7 5
11 11 9 14 -3 2 -14 -2 -24 -9z"/>
<path d="M1175 3341 c-6 -21 -77 -37 -111 -25 -17 6 -16 4 4 -17 14 -14 26
-20 30 -14 4 6 18 10 32 10 42 0 70 16 70 42 0 28 -16 31 -25 4z"/>
<path d="M1270 3350 c0 -5 -9 -10 -20 -10 -11 0 -20 -7 -20 -15 0 -7 -8 -18
-17 -24 -27 -15 -10 -22 19 -9 28 13 67 68 49 68 -6 0 -11 -4 -11 -10z"/>
<path d="M1395 3350 c-3 -5 3 -10 14 -10 12 0 21 5 21 10 0 6 -6 10 -14 10 -8
0 -18 -4 -21 -10z"/>
<path d="M1515 3351 c-6 -11 9 -23 19 -14 9 9 7 23 -3 23 -6 0 -12 -4 -16 -9z"/>
<path d="M1320 3346 c0 -2 7 -6 15 -10 8 -3 15 -1 15 4 0 6 -7 10 -15 10 -8 0
-15 -2 -15 -4z"/>
<path d="M1470 3340 c0 -6 -11 -10 -25 -10 -26 0 -33 -14 -14 -25 5 -4 19 1
30 11 18 16 19 16 19 -2 0 -16 2 -17 10 -4 13 21 12 27 -5 34 -8 3 -15 1 -15
-4z"/>
<path d="M1655 3340 c-3 -5 -1 -10 4 -10 6 0 11 5 11 10 0 6 -2 10 -4 10 -3 0
-8 -4 -11 -10z"/>
<path d="M1585 3314 c17 -13 29 -29 28 -34 -2 -6 2 -10 7 -10 6 0 10 5 10 10
0 15 -47 60 -62 60 -7 -1 1 -12 17 -26z"/>
<path d="M1788 3327 c-12 -9 -14 -18 -7 -37 8 -19 12 -22 19 -10 5 8 7 17 4
21 -2 4 0 9 6 11 5 1 6 9 2 15 -7 10 -11 10 -24 0z"/>
<path d="M1375 3320 c3 -5 11 -10 16 -10 6 0 7 5 4 10 -3 6 -11 10 -16 10 -6
0 -7 -4 -4 -10z"/>
<path d="M1706 3323 c-11 -11 -6 -23 9 -23 8 0 15 4 15 9 0 13 -16 22 -24 14z"/>
<path d="M1963 3309 c4 -13 7 -27 7 -31 0 -5 4 -8 10 -8 5 0 7 7 3 16 -5 14
-3 15 18 4 23 -13 23 -13 8 11 -9 13 -24 26 -34 28 -14 2 -17 -2 -12 -20z"/>
<path d="M1305 3310 c3 -5 12 -10 20 -10 8 0 17 5 20 10 4 6 -5 10 -20 10 -15
0 -24 -4 -20 -10z"/>
<path d="M1660 3305 c7 -8 16 -15 21 -15 5 0 6 7 3 15 -4 8 -13 15 -21 15 -13
0 -13 -3 -3 -15z"/>
<path d="M2035 3310 c-3 -5 -2 -10 4 -10 5 0 13 5 16 10 3 6 2 10 -4 10 -5 0
-13 -4 -16 -10z"/>
<path d="M1526 3301 c-3 -5 0 -11 8 -14 8 -3 17 1 20 9 6 15 -19 20 -28 5z"/>
<path d="M1742 3299 c2 -7 10 -15 17 -17 8 -3 12 1 9 9 -2 7 -10 15 -17 17 -8
3 -12 -1 -9 -9z"/>
<path d="M1566 3284 c-8 -20 -8 -24 2 -24 4 0 8 9 9 20 2 24 -3 26 -11 4z"/>
<path d="M1050 3280 c0 -5 5 -10 11 -10 5 0 7 5 4 10 -3 6 -8 10 -11 10 -2 0
-4 -4 -4 -10z"/>
<path d="M1315 3280 c3 -5 8 -10 11 -10 2 0 4 5 4 10 0 6 -5 10 -11 10 -5 0
-7 -4 -4 -10z"/>
<path d="M1940 3279 c0 -5 5 -7 10 -4 6 3 10 8 10 11 0 2 -4 4 -10 4 -5 0 -10
-5 -10 -11z"/>
<path d="M2150 3230 c0 -8 -9 -10 -23 -7 -25 7 -56 -8 -43 -20 5 -4 11 -3 13
4 3 10 9 10 24 0 15 -9 22 -9 35 5 11 10 12 18 5 22 -6 4 -11 2 -11 -4z"/>
<path d="M2420 2826 c0 -9 5 -16 10 -16 6 0 10 4 10 9 0 6 -4 13 -10 16 -5 3
-10 -1 -10 -9z"/>
<path d="M2460 2781 c0 -6 5 -13 10 -16 6 -3 10 1 10 9 0 9 -4 16 -10 16 -5 0
-10 -4 -10 -9z"/>
<path d="M2414 2765 c-4 -8 -3 -22 0 -31 5 -12 8 -12 19 -3 7 7 14 21 14 31 2
22 -25 24 -33 3z"/>
<path d="M2477 2718 c-4 -12 -4 -24 -1 -27 6 -7 24 20 24 37 0 21 -17 13 -23
-10z"/>
<path d="M2428 2704 c-4 -3 -3 -17 2 -30 7 -16 6 -24 -1 -24 -8 0 -8 -4 0 -13
6 -8 8 -17 5 -20 -4 -3 6 -28 22 -54 16 -26 29 -58 30 -69 1 -29 35 -72 56
-71 19 1 19 6 -3 144 -5 34 -9 65 -8 70 4 15 -13 63 -22 63 -12 0 -11 -7 1
-31 8 -13 7 -19 0 -19 -8 0 -8 -6 0 -20 9 -16 8 -19 -6 -13 -15 6 -15 4 -1
-18 9 -13 19 -44 22 -69 3 -25 8 -58 10 -75 4 -28 4 -29 -10 -11 -8 11 -15 32
-15 47 0 14 -13 43 -30 64 -32 40 -36 55 -20 71 7 7 4 22 -8 47 -10 21 -21 35
-24 31z"/>
<path d="M1925 2660 c-3 -5 -1 -10 4 -10 6 0 11 5 11 10 0 6 -2 10 -4 10 -3 0
-8 -4 -11 -10z"/>
<path d="M1750 2646 c0 -9 7 -16 16 -16 9 0 14 5 12 12 -6 18 -28 21 -28 4z"/>
<path d="M1900 2652 c0 -6 -16 -14 -35 -18 -23 -4 -43 -17 -60 -40 -36 -47
-21 -65 17 -20 18 22 38 36 53 36 15 0 25 7 28 22 4 12 4 24 2 27 -3 2 -5 -1
-5 -7z"/>
<path d="M2370 2655 c0 -25 86 -152 96 -142 3 2 -11 28 -31 58 -19 30 -38 62
-41 71 -5 16 -24 26 -24 13z"/>
<path d="M1047 2620 c3 -11 9 -20 14 -20 5 0 9 9 9 20 0 11 -6 20 -14 20 -9 0
-12 -7 -9 -20z"/>
<path d="M1925 2624 c-9 -9 -14 -18 -13 -20 7 -6 48 8 48 17 0 17 -19 19 -35
3z"/>
<path d="M1005 2620 c3 -5 8 -10 11 -10 2 0 4 5 4 10 0 6 -5 10 -11 10 -5 0
-7 -4 -4 -10z"/>
<path d="M1684 2619 c-3 -6 -1 -16 5 -22 8 -8 11 -5 11 11 0 24 -5 28 -16 11z"/>
<path d="M1720 2615 c-8 -9 -8 -15 -2 -15 12 0 26 19 19 26 -2 2 -10 -2 -17
-11z"/>
<path d="M2009 2617 c6 -8 8 -17 4 -21 -4 -4 -1 -11 7 -16 8 -5 17 -5 20 0 8
13 143 -18 157 -37 7 -9 10 -27 7 -40 -4 -14 -2 -23 5 -23 6 0 11 7 11 15 0
21 10 19 41 -11 l28 -27 -1 30 c-1 30 -37 92 -38 64 0 -8 7 -23 17 -33 9 -10
11 -18 5 -18 -6 0 -23 15 -37 34 -26 35 -75 60 -107 57 -10 -1 -18 4 -18 11 0
9 -12 13 -35 13 -20 -1 -38 2 -41 7 -3 4 -12 8 -21 8 -12 0 -13 -3 -4 -13z"/>
<path d="M2540 2621 c0 -5 9 -16 20 -24 10 -7 23 -32 29 -56 11 -50 16 -58 24
-36 4 8 2 15 -2 15 -5 0 -7 9 -4 19 3 10 -3 31 -13 45 -19 29 -54 53 -54 37z"/>
<path d="M972 2608 c2 -6 10 -14 16 -16 7 -2 10 2 6 12 -7 18 -28 22 -22 4z"/>
<path d="M915 2600 c3 -5 8 -10 11 -10 2 0 4 5 4 10 0 6 -5 10 -11 10 -5 0 -7
-4 -4 -10z"/>
<path d="M942 2599 c2 -7 10 -15 17 -17 8 -3 12 1 9 9 -2 7 -10 15 -17 17 -8
3 -12 -1 -9 -9z"/>
<path d="M1140 2594 c0 -20 18 -54 29 -54 4 0 3 16 -3 35 -11 36 -26 47 -26
19z"/>
<path d="M1750 2599 c0 -5 5 -7 10 -4 6 3 10 8 10 11 0 2 -4 4 -10 4 -5 0 -10
-5 -10 -11z"/>
<path d="M560 2585 c0 -8 -8 -15 -17 -15 -13 0 -14 -3 -5 -12 9 -9 15 -8 27 8
17 23 19 34 5 34 -5 0 -10 -7 -10 -15z"/>
<path d="M819 2595 c-3 -2 -14 -6 -25 -8 -10 -1 -20 -7 -22 -12 -4 -11 29 -25
42 -17 4 2 12 -2 17 -9 4 -7 11 -10 15 -7 3 4 -1 15 -11 24 -13 14 -14 19 -3
25 7 5 8 9 2 9 -6 0 -13 -2 -15 -5z"/>
<path d="M858 2588 c17 -21 52 -30 52 -14 0 7 -6 13 -12 13 -7 0 -22 4 -33 9
-17 7 -18 6 -7 -8z"/>
<path d="M1947 2582 c-15 -10 -24 -22 -20 -26 5 -4 8 -13 8 -18 0 -6 6 -13 14
-16 10 -3 13 2 9 22 -6 28 1 33 20 14 9 -9 12 -8 12 5 0 9 0 20 1 24 1 15 -17
12 -44 -5z"/>
<path d="M1837 2552 c-20 -21 -35 -41 -31 -45 8 -8 76 63 72 75 -2 5 -20 -9
-41 -30z"/>
<path d="M2625 2580 c-7 -12 2 -30 16 -30 12 0 12 27 0 35 -5 3 -12 1 -16 -5z"/>
<path d="M980 2576 c0 -4 11 -19 25 -34 22 -24 36 -22 17 3 -11 16 -42 38 -42
31z"/>
<path d="M1106 2558 c4 -13 7 -30 6 -40 0 -9 8 -24 19 -34 17 -16 19 -16 19
-1 0 10 -4 17 -9 17 -5 0 -11 18 -15 40 -3 22 -11 40 -17 40 -6 0 -7 -9 -3
-22z"/>
<path d="M1640 2570 c0 -5 5 -10 10 -10 6 0 10 5 10 10 0 6 -4 10 -10 10 -5 0
-10 -4 -10 -10z"/>
<path d="M725 2560 c-3 -5 -5 -10 -3 -11 2 0 16 -2 31 -4 24 -3 26 -1 16 11
-13 16 -35 18 -44 4z"/>
<path d="M1600 2554 c0 -8 5 -12 10 -9 6 4 8 11 5 16 -9 14 -15 11 -15 -7z"/>
<path d="M1720 2551 c-12 -24 -13 -31 -2 -31 5 0 14 11 20 25 14 29 -2 34 -18
6z"/>
<path d="M1890 2555 c0 -8 7 -15 15 -15 9 0 12 6 9 15 -4 8 -10 15 -15 15 -5
0 -9 -7 -9 -15z"/>
<path d="M2072 2555 c-8 -10 -22 -13 -37 -9 -15 4 -25 2 -25 -5 0 -6 6 -11 13
-12 6 0 21 -2 31 -4 18 -3 45 19 46 38 0 12 -14 7 -28 -8z"/>
<path d="M1060 2545 c0 -8 7 -15 15 -15 9 0 12 6 9 15 -4 8 -10 15 -15 15 -5
0 -9 -7 -9 -15z"/>
<path d="M2110 2550 c0 -5 4 -10 9 -10 6 0 13 5 16 10 3 6 -1 10 -9 10 -9 0
-16 -4 -16 -10z"/>
<path d="M696 2542 c-4 -7 -3 -19 2 -28 12 -21 22 -5 12 20 -4 13 -9 16 -14 8z"/>
<path d="M1760 2536 c0 -9 5 -16 10 -16 6 0 10 4 10 9 0 6 -4 13 -10 16 -5 3
-10 -1 -10 -9z"/>
<path d="M2136 2532 c-19 -4 -46 -25 -46 -36 0 -12 28 -6 32 6 3 9 9 8 22 -5
20 -19 32 -22 41 -7 3 6 -4 10 -17 10 -21 1 -22 2 -5 14 28 22 19 28 -27 18z"/>
<path d="M545 2520 c3 -5 1 -10 -5 -10 -6 0 -8 -5 -4 -11 4 -8 9 -7 15 2 12
19 11 29 -2 29 -5 0 -7 -4 -4 -10z"/>
<path d="M1205 2520 c-3 -5 -2 -10 4 -10 5 0 13 5 16 10 3 6 2 10 -4 10 -5 0
-13 -4 -16 -10z"/>
<path d="M1657 2523 c-11 -10 -8 -53 3 -53 6 0 10 14 10 30 0 31 -2 35 -13 23z"/>
<path d="M2630 2527 c0 -1 8 -26 18 -55 19 -54 32 -75 32 -53 0 22 -34 111
-42 111 -5 0 -8 -1 -8 -3z"/>
<path d="M1835 2511 c-3 -5 -1 -12 5 -16 5 -3 10 1 10 9 0 18 -6 21 -15 7z"/>
<path d="M1880 2505 c-7 -8 -8 -15 -2 -15 5 0 15 7 22 15 7 8 8 15 2 15 -5 0
-15 -7 -22 -15z"/>
<path d="M750 2500 c0 -5 5 -10 10 -10 6 0 10 5 10 10 0 6 -4 10 -10 10 -5 0
-10 -4 -10 -10z"/>
<path d="M1030 2500 c0 -5 5 -10 10 -10 6 0 10 5 10 10 0 6 -4 10 -10 10 -5 0
-10 -4 -10 -10z"/>
<path d="M962 2488 c5 -15 28 -23 28 -10 0 5 -7 13 -16 16 -10 4 -14 1 -12 -6z"/>
<path d="M2300 2495 c0 -15 18 -40 24 -34 3 3 -1 14 -9 25 -8 10 -14 15 -15 9z"/>
<path d="M2570 2492 c0 -5 7 -17 15 -28 8 -10 15 -30 16 -44 1 -21 2 -22 6 -5
3 11 9 23 14 26 6 3 7 13 3 23 -5 14 -9 15 -15 4 -7 -10 -11 -7 -15 10 -6 21
-24 32 -24 14z"/>
<path d="M1090 2480 c0 -5 5 -10 11 -10 5 0 7 5 4 10 -3 6 -8 10 -11 10 -2 0
-4 -4 -4 -10z"/>
<path d="M1186 2481 c-4 -7 -5 -15 -2 -18 9 -9 19 4 14 18 -4 11 -6 11 -12 0z"/>
<path d="M1290 2480 c0 -5 5 -10 10 -10 6 0 10 5 10 10 0 6 -4 10 -10 10 -5 0
-10 -4 -10 -10z"/>
<path d="M1720 2480 c0 -5 5 -10 10 -10 6 0 10 5 10 10 0 6 -4 10 -10 10 -5 0
-10 -4 -10 -10z"/>
<path d="M848 2459 c-9 -6 -7 -9 9 -9 12 0 28 -3 37 -6 9 -3 16 -2 16 4 0 13
-45 21 -62 11z"/>
<path d="M1525 2460 c3 -5 8 -10 11 -10 2 0 4 5 4 10 0 6 -5 10 -11 10 -5 0
-7 -4 -4 -10z"/>
<path d="M930 2449 c0 -5 5 -7 10 -4 6 3 10 8 10 11 0 2 -4 4 -10 4 -5 0 -10
-5 -10 -11z"/>
<path d="M1150 2450 c0 -11 51 -43 57 -36 3 3 1 12 -6 20 -13 16 -51 28 -51
16z"/>
<path d="M1753 2450 c-22 -5 -74 -21 -115 -35 -40 -15 -81 -29 -90 -32 -10 -3
-18 -11 -18 -19 0 -11 -7 -11 -41 1 -47 17 -145 20 -154 5 -7 -11 0 -12 71
-10 37 1 56 -4 68 -16 16 -16 20 -15 64 7 66 34 69 35 47 8 -35 -42 -45 -67
-46 -119 -1 -27 -4 -50 -6 -50 -2 0 -9 14 -14 30 -6 17 -18 30 -27 30 -8 0
-12 3 -9 7 4 3 0 14 -9 24 -15 17 -17 16 -35 -2 -10 -10 -28 -19 -38 -19 -11
0 -22 -6 -24 -12 -4 -10 -6 -10 -6 0 -1 17 -31 15 -31 -3 0 -12 13 -15 59 -15
56 0 61 -2 89 -36 17 -20 38 -64 47 -98 9 -33 46 -118 81 -188 35 -71 66 -143
68 -161 3 -19 19 -62 37 -98 20 -39 35 -87 39 -124 4 -33 8 -49 9 -35 0 15 6
31 13 38 7 7 8 12 4 12 -5 0 -3 7 4 15 10 12 8 20 -9 41 -12 15 -21 31 -21 36
0 5 -10 22 -22 38 -25 34 -31 70 -11 70 21 0 8 49 -22 80 -34 35 -32 44 6 25
57 -30 177 -46 349 -46 171 1 249 10 299 35 66 35 114 120 147 264 27 114 41
140 86 154 l40 12 -4 48 c-3 27 -10 54 -15 59 -12 12 -222 56 -348 74 -107 15
-295 18 -383 7 -35 -5 -65 -5 -68 0 -3 4 -8 8 -12 7 -4 -1 -26 -5 -49 -9z
m320 -16 c42 -4 75 -10 73 -13 -2 -3 12 -6 32 -7 61 -1 188 -34 224 -57 48
-33 68 -79 68 -162 0 -129 -49 -272 -107 -313 -52 -36 -85 -42 -263 -46 -238
-6 -369 23 -437 96 -47 51 -93 206 -93 316 0 55 27 105 67 125 106 53 263 75
436 61z m337 -44 c0 -5 -7 -7 -15 -4 -8 4 -15 8 -15 10 0 2 7 4 15 4 8 0 15
-4 15 -10z m114 -26 c57 -5 69 -16 60 -59 -7 -32 -19 -45 -46 -45 -9 0 -18 -6
-21 -12 -3 -8 -7 -6 -12 7 -17 48 -39 91 -54 109 -15 18 -15 19 4 12 11 -4 42
-9 69 -12z m-15 -146 c-1 -7 -5 -24 -9 -38 -7 -22 -8 -21 -9 13 -1 20 4 37 9
37 6 0 10 -6 9 -12z m-962 -70 c-3 -7 -5 -2 -5 12 0 14 2 19 5 13 2 -7 2 -19
0 -25z m121 -250 c14 -14 16 -28 2 -28 -5 0 -14 9 -20 20 -12 22 -1 27 18 8z"/>
<path d="M1913 2413 c9 -2 23 -2 30 0 6 3 -1 5 -18 5 -16 0 -22 -2 -12 -5z"/>
<path d="M2175 2358 c10 -31 25 -47 25 -26 0 24 -11 48 -22 48 -5 0 -6 -10 -3
-22z"/>
<path d="M1933 2356 c2 -6 26 -16 53 -22 89 -20 139 -56 192 -139 42 -67 51
-77 64 -69 6 4 8 -2 3 -17 -5 -19 -4 -21 4 -9 9 13 11 13 11 -2 0 -22 16 -23
24 -2 9 22 8 24 -9 24 -11 0 -15 11 -15 36 0 28 -3 35 -15 30 -8 -3 -15 0 -15
7 0 22 -110 125 -156 148 -50 24 -147 34 -141 15z m307 -217 c0 -6 -4 -7 -10
-4 -5 3 -10 11 -10 16 0 6 5 7 10 4 6 -3 10 -11 10 -16z"/>
<path d="M1770 2350 c0 -5 5 -10 10 -10 6 0 10 5 10 10 0 6 -4 10 -10 10 -5 0
-10 -4 -10 -10z"/>
<path d="M1900 2350 c0 -5 5 -10 10 -10 6 0 10 5 10 10 0 6 -4 10 -10 10 -5 0
-10 -4 -10 -10z"/>
<path d="M1800 2340 c0 -5 5 -10 11 -10 5 0 7 5 4 10 -3 6 -8 10 -11 10 -2 0
-4 -4 -4 -10z"/>
<path d="M2250 2329 c7 -11 14 -19 16 -16 7 7 -7 37 -17 37 -6 0 -5 -9 1 -21z"/>
<path d="M2140 2330 c0 -5 5 -10 10 -10 6 0 10 5 10 10 0 6 -4 10 -10 10 -5 0
-10 -4 -10 -10z"/>
<path d="M2330 2333 c1 -9 57 -73 65 -73 14 0 2 29 -23 53 -28 27 -42 34 -42
20z"/>
<path d="M1722 2308 c-14 -14 -16 -28 -3 -28 9 0 24 30 18 36 -2 2 -9 -2 -15
-8z"/>
<path d="M1813 2286 c7 -14 13 -23 15 -21 7 6 -9 45 -18 45 -4 0 -3 -11 3 -24z"/>
<path d="M2230 2289 c0 -5 -4 -7 -10 -4 -5 3 -10 2 -10 -3 0 -20 28 -20 33 -1
3 10 1 19 -4 19 -5 0 -9 -5 -9 -11z"/>
<path d="M1680 2240 c0 -5 5 -10 10 -10 6 0 10 5 10 10 0 6 -4 10 -10 10 -5 0
-10 -4 -10 -10z"/>
<path d="M2010 2239 c0 -5 -8 -9 -17 -7 -34 5 -23 -14 19 -35 39 -20 128 -115
128 -137 0 -6 -9 -10 -19 -10 -10 0 -21 -7 -25 -15 -3 -10 1 -15 12 -15 21 0
38 11 43 27 3 8 15 3 34 -15 32 -30 85 -50 85 -32 0 6 -7 13 -15 16 -8 4 -15
10 -15 14 0 16 -162 170 -186 176 -15 4 -24 13 -24 25 0 10 -4 19 -10 19 -5 0
-10 -5 -10 -11z"/>
<path d="M2240 2239 c0 -5 5 -7 10 -4 6 3 10 8 10 11 0 2 -4 4 -10 4 -5 0 -10
-5 -10 -11z"/>
<path d="M1850 2226 c0 -9 5 -16 10 -16 6 0 10 4 10 9 0 6 -4 13 -10 16 -5 3
-10 -1 -10 -9z"/>
<path d="M2386 2225 c4 -8 10 -15 15 -15 5 0 9 7 9 15 0 8 -7 15 -15 15 -9 0
-12 -6 -9 -15z"/>
<path d="M1654 2205 c4 -25 14 -28 26 -6 9 18 8 21 -9 21 -11 0 -18 -6 -17
-15z"/>
<path d="M1706 2186 c-18 -29 -10 -34 20 -12 14 11 16 18 8 26 -8 8 -15 4 -28
-14z"/>
<path d="M1908 2202 c-35 -4 -36 -18 -2 -25 16 -3 28 0 31 10 7 18 4 19 -29
15z"/>
<path d="M1808 2187 c-7 -8 -19 -12 -26 -9 -7 2 -11 -2 -10 -10 2 -7 -5 -12
-15 -12 -11 1 -17 -4 -15 -14 5 -24 29 -27 35 -3 3 11 13 23 23 26 22 7 47 35
32 35 -6 0 -17 -6 -24 -13z"/>
<path d="M1852 2175 c-7 -14 -12 -35 -12 -46 0 -22 58 -87 80 -90 71 -8 130
31 130 87 0 29 -5 36 -40 54 -43 22 -60 25 -60 11 0 -5 13 -12 29 -16 46 -10
55 -27 34 -64 -26 -45 -67 -56 -109 -30 -37 22 -38 25 -35 82 3 43 -1 47 -17
12z"/>
<path d="M2340 2190 c0 -5 5 -10 10 -10 6 0 10 5 10 10 0 6 -4 10 -10 10 -5 0
-10 -4 -10 -10z"/>
<path d="M2400 2185 c0 -8 2 -15 4 -15 2 0 6 7 10 15 3 8 1 15 -4 15 -6 0 -10
-7 -10 -15z"/>
<path d="M2290 2180 c0 -5 5 -10 10 -10 6 0 10 5 10 10 0 6 -4 10 -10 10 -5 0
-10 -4 -10 -10z"/>
<path d="M1632 2171 c2 -7 7 -12 11 -12 12 1 9 15 -3 20 -7 2 -11 -2 -8 -8z"/>
<path d="M1945 2149 c-10 -15 3 -25 16 -12 7 7 7 13 1 17 -6 3 -14 1 -17 -5z"/>
<path d="M1712 2138 c-11 -14 -9 -19 14 -37 15 -12 32 -21 38 -21 6 0 1 8 -11
18 -11 9 -23 26 -25 36 -3 17 -4 17 -16 4z"/>
<path d="M2300 2130 c11 -11 23 -20 27 -20 3 0 -2 9 -12 20 -10 11 -22 20 -27
20 -4 0 1 -9 12 -20z"/>
<path d="M2390 2135 c0 -8 5 -15 10 -15 6 0 10 7 10 15 0 8 -4 15 -10 15 -5 0
-10 -7 -10 -15z"/>
<path d="M1640 2125 c0 -23 145 -215 163 -215 16 0 4 19 -49 81 -31 35 -63 79
-72 98 -15 30 -42 54 -42 36z"/>
<path d="M1780 2076 c0 -28 14 -35 23 -12 3 8 -1 20 -9 26 -12 10 -14 8 -14
-14z"/>
<path d="M1716 2056 c3 -7 15 -18 27 -25 46 -23 88 -49 122 -75 28 -22 39 -25
50 -16 9 7 15 8 20 0 3 -5 15 -10 26 -10 10 0 19 -3 19 -7 0 -5 30 -9 66 -10
47 -2 64 1 61 10 -2 7 -13 13 -24 15 -15 2 -19 9 -16 26 4 17 -1 25 -16 29
-24 6 -25 4 -9 -23 7 -10 10 -22 7 -25 -8 -8 -40 5 -35 14 3 4 1 13 -5 21 -7
12 -9 11 -9 -5 0 -11 -5 -27 -11 -35 -8 -12 -9 -10 -4 7 9 33 -2 45 -27 32
-15 -8 -22 -8 -28 1 -4 7 -12 10 -18 6 -5 -3 -21 3 -34 14 -19 14 -28 16 -36
8 -9 -9 -12 -8 -12 5 0 9 -3 17 -7 18 -5 0 -18 2 -30 3 -13 2 -31 10 -41 19
-22 20 -43 22 -36 3z"/>
<path d="M2290 2011 c0 -6 5 -13 10 -16 6 -3 10 1 10 9 0 9 -4 16 -10 16 -5 0
-10 -4 -10 -9z"/>
<path d="M2130 2000 c-14 -4 -18 -9 -10 -10 11 -1 9 -4 -5 -10 -19 -7 -19 -8
5 -18 19 -7 27 -6 33 5 7 11 12 12 23 2 8 -6 14 -8 14 -3 -1 10 -25 44 -31 43
-2 -1 -15 -5 -29 -9z"/>
<path d="M2080 1960 c0 -5 5 -10 11 -10 5 0 7 5 4 10 -3 6 -8 10 -11 10 -2 0
-4 -4 -4 -10z"/>
<path d="M2205 1929 c-11 -17 1 -21 15 -4 8 9 8 15 2 15 -6 0 -14 -5 -17 -11z"/>
<path d="M2570 2430 c0 -5 5 -10 11 -10 5 0 7 5 4 10 -3 6 -8 10 -11 10 -2 0
-4 -4 -4 -10z"/>
<path d="M818 2423 c7 -3 16 -2 19 1 4 3 -2 6 -13 5 -11 0 -14 -3 -6 -6z"/>
<path d="M1066 2412 c-3 -5 8 -9 23 -9 58 0 112 -37 144 -98 13 -24 16 -26 17
-10 0 31 -33 78 -66 94 -16 7 -37 17 -46 22 -22 11 -65 12 -72 1z"/>
<path d="M2644 2395 c1 -33 16 -33 16 0 0 14 -4 25 -9 25 -5 0 -8 -11 -7 -25z"/>
<path d="M607 2403 c-11 -10 -8 -43 3 -43 6 0 10 7 10 15 0 9 9 15 25 15 14 0
25 5 25 10 0 11 -53 14 -63 3z"/>
<path d="M553 2384 c-3 -9 -3 -62 0 -117 3 -56 1 -124 -4 -151 -5 -28 -6 -59
-3 -70 6 -18 8 -17 22 10 19 36 30 180 13 170 -17 -11 -14 45 5 65 9 10 14 26
11 36 -3 15 -6 14 -15 -7 -10 -21 -10 -16 -5 28 4 36 2 52 -6 52 -6 0 -14 -7
-18 -16z"/>
<path d="M1230 2391 c0 -6 5 -13 10 -16 6 -3 10 1 10 9 0 9 -4 16 -10 16 -5 0
-10 -4 -10 -9z"/>
<path d="M1270 2376 c0 -8 55 -66 62 -66 16 0 7 22 -18 45 -24 22 -44 32 -44
21z"/>
<path d="M920 2339 c0 -7 -10 -9 -24 -5 -14 3 -28 2 -31 -4 -3 -5 -15 -10 -26
-10 -51 0 -171 -122 -145 -147 7 -7 45 38 46 54 0 6 15 22 33 34 17 13 35 27
38 31 3 5 23 11 45 14 21 3 46 8 54 11 8 4 18 5 23 5 4 -1 7 5 7 13 0 8 -4 15
-10 15 -5 0 -10 -5 -10 -11z"/>
<path d="M1040 2330 c0 -5 5 -10 10 -10 6 0 10 5 10 10 0 6 -4 10 -10 10 -5 0
-10 -4 -10 -10z"/>
<path d="M1425 2321 c-6 -11 9 -23 19 -14 9 9 7 23 -3 23 -6 0 -12 -4 -16 -9z"/>
<path d="M1390 2299 c0 -5 5 -7 10 -4 6 3 10 8 10 11 0 2 -4 4 -10 4 -5 0 -10
-5 -10 -11z"/>
<path d="M1360 2285 c7 -9 15 -13 17 -11 7 7 -7 26 -19 26 -6 0 -6 -6 2 -15z"/>
<path d="M1241 2254 c0 -11 3 -14 6 -6 3 7 2 16 -1 19 -3 4 -6 -2 -5 -13z"/>
<path d="M238 2255 c-8 -8 38 -142 63 -182 28 -45 36 -35 11 14 -11 21 -27 65
-36 97 -15 59 -27 81 -38 71z"/>
<path d="M2597 2234 c-3 -4 1 -17 9 -30 18 -26 54 -165 47 -177 -3 -5 -18 3
-33 18 -23 22 -34 26 -60 20 -29 -6 -30 -8 -13 -20 10 -8 19 -9 21 -4 2 5 12
0 22 -12 11 -11 24 -18 29 -14 10 6 19 -8 36 -60 4 -11 6 -58 5 -105 -3 -90
-4 -286 -2 -332 2 -29 16 -38 25 -15 5 11 9 -21 11 -82 1 -13 8 -27 16 -30 17
-6 19 -26 6 -54 -5 -10 -6 -20 -4 -23 10 -9 68 9 68 22 0 8 4 14 9 14 6 0 6
12 2 28 -4 15 -6 42 -5 60 1 18 -2 35 -7 38 -5 3 -9 18 -9 35 0 22 -9 35 -41
59 l-42 30 -1 104 c0 57 1 100 4 96 3 -4 14 -10 25 -12 16 -2 20 3 21 27 0 17
9 54 19 84 17 50 17 57 2 103 -19 60 -125 238 -142 238 -6 0 -14 -3 -18 -6z
m107 -152 c28 -56 26 -75 -3 -25 -17 29 -31 55 -31 58 0 13 21 -8 34 -33z m8
-114 c-2 -10 -8 -18 -12 -18 -11 0 -17 20 -24 76 l-6 49 23 -45 c13 -25 21
-53 19 -62z m38 -22 c0 -14 -4 -28 -10 -31 -6 -4 -10 7 -10 24 0 17 5 31 10
31 6 0 10 -11 10 -24z m-32 -37 c7 -12 11 -23 8 -26 -7 -7 -36 23 -36 36 0 18
14 13 28 -10z m-18 -49 c0 -16 -4 -30 -9 -30 -12 0 -24 37 -16 50 12 20 25 10
25 -20z m30 -44 c0 -3 -4 -8 -10 -11 -5 -3 -10 -1 -10 4 0 6 5 11 10 11 6 0
10 -2 10 -4z m0 -287 c0 -13 -21 -22 -30 -13 -4 5 -11 20 -15 32 -7 23 -7 23
19 7 14 -10 26 -21 26 -26z m25 -36 c-4 -10 -7 -26 -7 -36 1 -10 -5 -17 -11
-14 -17 5 -21 48 -5 58 21 14 31 10 23 -8z m5 -103 l0 -35 -14 27 c-8 16 -17
31 -20 36 -2 4 4 8 15 8 15 0 19 -7 19 -36z"/>
<path d="M860 2219 c0 -5 -6 -9 -13 -9 -8 0 -24 -9 -37 -20 -13 -11 -27 -20
-31 -20 -4 0 -22 -20 -39 -45 -17 -25 -36 -45 -43 -45 -13 -1 -53 -50 -40 -50
5 0 19 7 31 16 12 8 27 12 32 9 6 -3 10 -1 10 4 0 6 5 11 10 11 6 0 9 -3 8 -7
-5 -17 23 -51 44 -55 13 -3 30 -8 38 -12 11 -5 16 0 17 16 1 14 -1 18 -5 11
-6 -9 -15 -7 -37 7 -46 30 -41 69 15 129 25 27 56 51 70 53 l25 4 -27 5 c-16
4 -28 2 -28 -2z"/>
<path d="M385 2158 c5 -37 16 -53 78 -110 l72 -68 -3 -50 c-4 -51 11 -69 22
-27 9 35 7 97 -4 97 -5 0 -10 5 -10 11 0 6 -29 42 -64 79 -35 38 -67 78 -71
89 -12 39 -27 23 -20 -21z"/>
<path d="M915 2189 c-4 -6 -5 -13 -2 -16 7 -7 27 6 27 18 0 12 -17 12 -25 -2z"/>
<path d="M880 2170 c0 -5 5 -10 10 -10 6 0 10 5 10 10 0 6 -4 10 -10 10 -5 0
-10 -4 -10 -10z"/>
<path d="M857 2164 c-4 -4 -7 -24 -7 -45 0 -29 6 -42 26 -58 27 -21 91 -30 79
-11 -3 6 -14 10 -24 10 -26 0 -49 30 -58 74 -5 21 -12 34 -16 30z"/>
<path d="M945 2141 c-6 -11 9 -23 19 -14 9 9 7 23 -3 23 -6 0 -12 -4 -16 -9z"/>
<path d="M1030 2131 c0 -6 -12 -16 -27 -23 -28 -14 -41 -58 -16 -58 10 0 12 6
7 22 -6 20 -5 21 8 10 13 -10 18 -8 32 12 18 29 21 46 6 46 -5 0 -10 -4 -10
-9z"/>
<path d="M1145 2100 c-3 -5 1 -10 10 -10 9 0 13 5 10 10 -3 6 -8 10 -10 10 -2
0 -7 -4 -10 -10z"/>
<path d="M1088 2093 c-19 -5 -25 -23 -9 -23 17 0 41 12 41 21 0 9 -4 10 -32 2z"/>
<path d="M1142 2045 c-6 -11 -12 -18 -14 -16 -6 9 -58 -32 -58 -45 0 -22 13
-17 55 19 21 19 36 39 33 47 -3 11 -7 10 -16 -5z"/>
<path d="M1305 2036 c-11 -8 -14 -15 -8 -19 6 -4 16 0 23 8 17 21 8 28 -15 11z"/>
<path d="M1040 2020 c-8 -10 -18 -17 -22 -14 -5 3 -19 -1 -31 -9 -13 -8 -32
-17 -42 -19 -19 -5 -19 -5 -1 -13 11 -5 21 -3 26 4 4 7 10 12 14 10 13 -4 75
24 80 37 8 22 -9 24 -24 4z"/>
<path d="M2560 2010 c0 -5 5 -10 10 -10 6 0 10 5 10 10 0 6 -4 10 -10 10 -5 0
-10 -4 -10 -10z"/>
<path d="M902 1958 c2 -6 10 -14 16 -16 7 -2 10 2 6 12 -7 18 -28 22 -22 4z"/>
<path d="M1047 1943 c-12 -12 -7 -22 8 -17 8 4 15 10 15 15 0 11 -14 12 -23 2z"/>
<path d="M425 1810 c-29 -30 -29 -31 -16 -88 7 -31 14 -75 17 -97 4 -32 23
-337 25 -395 0 -23 30 -201 39 -240 48 -201 106 -361 149 -417 12 -14 21 -29
21 -33 0 -11 78 -126 95 -140 8 -7 15 -17 15 -22 0 -6 13 -27 28 -47 37 -48
83 -139 73 -146 -5 -2 -11 -33 -14 -67 -4 -35 -9 -75 -13 -90 -5 -23 -3 -26
19 -25 23 2 28 27 6 27 -5 0 -2 11 7 24 8 14 16 29 16 33 0 4 2 10 4 12 2 2 4
-1 4 -8 0 -7 4 -9 10 -6 10 6 -10 36 -20 30 -3 -2 -6 15 -7 36 -3 38 12 53 23
24 4 -8 11 -15 16 -15 11 0 91 -60 96 -72 2 -5 15 -8 28 -8 13 0 24 -3 24 -8
0 -9 63 -30 145 -48 72 -16 98 -17 90 -4 -3 5 -12 7 -20 3 -9 -3 -21 -1 -28 4
-11 9 -88 35 -112 38 -28 4 -115 47 -115 57 0 5 -6 7 -12 6 -7 -2 -12 3 -10
11 2 8 -3 11 -12 8 -14 -6 -66 44 -66 63 0 5 -15 24 -34 43 -19 20 -32 38 -29
40 8 9 -8 48 -18 42 -5 -4 -9 1 -9 9 0 9 -5 16 -11 16 -21 0 -38 33 -28 52 8
14 6 18 -10 18 -21 0 -77 63 -61 68 18 6 10 21 -12 24 -13 2 -24 11 -27 23 -2
11 -14 33 -27 51 -13 17 -24 37 -24 44 0 7 -6 21 -14 29 -7 9 -21 42 -31 74
-10 33 -24 65 -32 72 -7 8 -13 20 -13 27 0 10 3 9 10 -2 7 -11 10 -11 10 -2 0
7 -9 25 -20 40 -24 34 -37 82 -21 82 6 0 11 5 11 10 0 6 -7 10 -15 10 -12 0
-20 23 -14 43 0 1 -4 15 -10 30 -6 16 -13 71 -16 123 -2 51 -9 103 -16 115 -7
14 -11 111 -12 285 -1 145 -2 264 -3 264 0 0 -13 -14 -29 -30z m15 -41 c0 -5
-4 -9 -10 -9 -5 0 -10 7 -10 16 0 8 5 12 10 9 6 -3 10 -10 10 -16z"/>
<path d="M2836 1769 c-49 -23 -53 -28 -38 -38 18 -11 33 -105 33 -215 1 -54 4
-94 9 -90 13 15 29 76 35 134 3 30 7 62 10 70 4 15 10 46 22 107 8 45 -19 57
-71 32z m39 -46 c-8 -7 -20 -13 -27 -13 -9 1 -7 5 5 14 9 7 17 19 17 27 0 12
2 12 9 0 6 -9 4 -19 -4 -28z m-6 -45 c0 -7 -4 -22 -9 -33 -7 -16 -9 -17 -9 -3
-1 9 -4 23 -7 32 -4 11 -1 16 10 16 9 0 16 -6 15 -12z"/>
<path d="M1140 1770 c0 -5 5 -10 10 -10 6 0 10 5 10 10 0 6 -4 10 -10 10 -5 0
-10 -4 -10 -10z"/>
<path d="M2744 1766 c-4 -11 -2 -21 6 -26 10 -6 8 -15 -10 -40 -16 -22 -19
-35 -12 -42 16 -16 53 50 45 82 -8 35 -21 47 -29 26z"/>
<path d="M1126 1549 c-18 -31 -18 -31 2 -25 12 4 34 0 51 -8 58 -30 67 -16 22
33 -37 39 -52 39 -75 0z"/>
<path d="M1475 1540 c-22 -10 -53 -30 -70 -44 l-30 -26 28 0 c15 0 30 6 33 14
3 8 19 19 36 25 40 14 39 14 36 -6 -2 -14 4 -18 24 -17 19 0 24 -3 18 -11 -7
-8 -2 -16 16 -25 14 -8 30 -22 35 -32 13 -24 84 -25 97 -2 11 20 -7 64 -26 64
-7 0 -10 5 -7 10 3 6 -1 10 -9 10 -9 0 -16 4 -16 9 0 12 -81 51 -106 51 -10 0
-37 -9 -59 -20z m121 -25 c18 -14 17 -14 -12 -15 -16 0 -39 7 -50 15 -18 14
-17 14 12 15 16 0 39 -7 50 -15z m67 -83 c-25 -4 -108 34 -94 42 6 4 15 5 19
2 4 -2 14 -1 22 4 10 6 23 1 43 -18 25 -24 26 -27 10 -30z"/>
<path d="M2780 1490 c0 -5 5 -10 10 -10 6 0 10 5 10 10 0 6 -4 10 -10 10 -5 0
-10 -4 -10 -10z"/>
<path d="M1270 1477 c18 -18 70 -31 70 -18 0 13 -8 17 -50 26 -31 6 -33 5 -20
-8z"/>
<path d="M2649 1473 c-4 -34 1 -87 10 -96 8 -8 11 4 11 40 0 29 -4 55 -10 58
-5 3 -10 3 -11 -2z"/>
<path d="M1415 1450 c3 -5 8 -10 11 -10 2 0 4 5 4 10 0 6 -5 10 -11 10 -5 0
-7 -4 -4 -10z"/>
<path d="M1370 1373 c0 -5 7 -18 15 -29 15 -18 15 -18 13 5 -3 23 -28 44 -28
24z"/>
<path d="M2640 1300 c0 -27 4 -50 10 -50 11 0 24 65 16 85 -12 32 -26 13 -26
-35z"/>
<path d="M1370 1303 c0 -11 6 -25 13 -32 10 -10 5 -18 -23 -41 -26 -22 -31
-30 -17 -30 10 0 29 11 42 24 16 17 27 20 34 13 6 -6 14 -7 18 -3 4 4 -2 15
-14 24 -12 9 -23 26 -25 36 -4 26 -28 33 -28 9z"/>
<path d="M1410 1301 c0 -11 5 -23 10 -26 6 -4 10 5 10 19 0 14 -4 26 -10 26
-5 0 -10 -9 -10 -19z"/>
<path d="M2750 1235 c-18 -19 -20 -25 -8 -25 19 0 52 36 40 44 -5 3 -20 -6
-32 -19z"/>
<path d="M2600 1241 c0 -16 31 -42 41 -35 6 4 3 14 -7 25 -18 20 -34 25 -34
10z"/>
<path d="M1285 1229 c-11 -17 0 -20 21 -4 17 13 17 14 2 15 -9 0 -20 -5 -23
-11z"/>
<path d="M1452 1218 c2 -6 10 -14 16 -16 7 -2 10 2 6 12 -7 18 -28 22 -22 4z"/>
<path d="M2605 1171 c-3 -10 -6 -35 -7 -55 -1 -20 -6 -36 -11 -36 -5 0 -4 -7
3 -15 6 -8 9 -23 5 -34 -4 -14 0 -23 14 -30 25 -14 71 -14 71 -1 0 6 -6 10
-13 10 -26 0 -45 52 -40 111 5 56 -9 89 -22 50z"/>
<path d="M1190 1160 c0 -5 7 -10 15 -10 8 0 15 5 15 10 0 6 -7 10 -15 10 -8 0
-15 -4 -15 -10z"/>
<path d="M1445 1162 c-3 -3 -29 -7 -58 -9 -74 -6 -78 -6 -121 3 -31 6 -38 4
-34 -7 6 -19 75 -30 121 -18 20 6 43 7 49 3 6 -4 38 -8 70 -10 57 -3 120 -19
145 -37 7 -5 16 -6 21 -3 6 3 29 -5 53 -18 24 -14 58 -27 74 -30 17 -2 32 -5
35 -5 3 -1 -3 -6 -13 -12 -9 -5 -23 -7 -30 -2 -6 4 -114 8 -239 8 -204 0 -228
2 -246 18 -20 18 -20 18 -25 0 -4 -17 -5 -17 -6 0 -1 12 -5 15 -13 10 -26 -16
-70 -12 -75 8 -3 10 -7 19 -10 19 -7 0 -36 -31 -32 -34 35 -23 61 -36 68 -31
5 2 11 -1 14 -8 3 -9 68 -12 273 -11 248 0 343 -6 369 -26 13 -10 65 -10 65 1
0 4 10 9 22 11 54 8 5 48 -59 48 -12 0 -40 9 -60 20 -21 11 -45 20 -53 20 -9
0 -20 4 -25 9 -6 5 -53 23 -105 39 -52 17 -94 35 -93 39 2 9 -73 14 -82 5z
m421 -163 c3 -5 -1 -9 -10 -9 -21 0 -46 11 -46 20 0 10 49 0 56 -11z"/>
<path d="M1090 1150 c0 -5 5 -10 10 -10 6 0 10 5 10 10 0 6 -4 10 -10 10 -5 0
-10 -4 -10 -10z"/>
<path d="M1380 1120 c0 -5 5 -10 11 -10 5 0 7 5 4 10 -3 6 -8 10 -11 10 -2 0
-4 -4 -4 -10z"/>
<path d="M923 1102 c-7 -5 -9 -13 -4 -21 5 -7 14 -10 20 -7 6 4 11 3 11 -2 0
-5 8 -19 19 -30 18 -22 18 -22 36 -2 18 19 17 20 -8 20 -15 0 -27 5 -27 10 0
14 44 12 59 -2 6 -7 15 -13 19 -14 4 0 15 -4 25 -9 23 -10 28 -4 20 23 -4 17
-10 21 -25 16 -10 -3 -29 1 -41 9 -24 15 -85 21 -104 9z"/>
<path d="M1100 1090 c0 -5 5 -10 10 -10 6 0 10 5 10 10 0 6 -4 10 -10 10 -5 0
-10 -4 -10 -10z"/>
<path d="M1490 1060 c0 -5 7 -10 16 -10 8 0 12 5 9 10 -3 6 -10 10 -16 10 -5
0 -9 -4 -9 -10z"/>
<path d="M1640 1050 c0 -5 5 -10 11 -10 5 0 7 5 4 10 -3 6 -8 10 -11 10 -2 0
-4 -4 -4 -10z"/>
<path d="M2557 1046 c-4 -9 -2 -18 3 -21 6 -4 10 -21 10 -38 0 -25 -3 -29 -11
-17 -8 11 -9 7 -5 -18 4 -22 0 -41 -10 -57 -8 -13 -16 -37 -16 -54 -1 -17 -5
-28 -9 -25 -7 4 -12 -17 -23 -86 -1 -8 -10 -14 -19 -14 -15 2 -16 -4 -11 -31
6 -36 -7 -53 -25 -31 -9 11 -9 25 -1 56 13 48 7 63 -11 28 -7 -12 -12 -51 -11
-84 2 -47 -2 -63 -13 -68 -18 -7 -20 15 -3 32 9 9 9 12 0 12 -16 0 -30 -30
-38 -79 -4 -22 -11 -41 -16 -41 -4 0 -13 -12 -18 -26 -8 -19 -16 -25 -30 -21
-13 3 -20 0 -20 -8 0 -22 -41 -85 -55 -85 -7 0 -23 -13 -36 -30 -13 -16 -27
-30 -31 -30 -5 0 -17 -9 -29 -21 -15 -15 -18 -24 -10 -32 8 -8 20 -3 43 19 18
17 48 41 66 53 17 12 32 29 32 38 0 9 6 13 15 9 10 -3 18 1 22 12 4 9 34 49
68 87 33 39 70 88 80 110 11 22 23 42 26 45 10 9 48 95 55 125 4 17 10 35 14
40 18 25 52 187 44 213 -4 15 -8 30 -8 34 -2 15 -14 18 -19 4z m-170 -498 c-3
-8 -6 -5 -6 6 -1 11 2 17 5 13 3 -3 4 -12 1 -19z m33 18 c0 -3 -4 -8 -10 -11
-5 -3 -10 -1 -10 4 0 6 5 11 10 11 6 0 10 -2 10 -4z"/>
<path d="M1010 1000 c0 -5 5 -10 10 -10 6 0 10 5 10 10 0 6 -4 10 -10 10 -5 0
-10 -4 -10 -10z"/>
<path d="M1800 960 c0 -5 5 -10 10 -10 6 0 10 5 10 10 0 6 -4 10 -10 10 -5 0
-10 -4 -10 -10z"/>
<path d="M1028 953 c6 -2 12 -11 12 -19 0 -8 5 -14 10 -14 6 0 10 4 10 8 0 12
-22 32 -34 31 -6 0 -5 -3 2 -6z"/>
<path d="M1765 940 c-3 -5 1 -10 10 -10 9 0 13 5 10 10 -3 6 -8 10 -10 10 -2
0 -7 -4 -10 -10z"/>
<path d="M1220 930 c0 -5 5 -10 10 -10 6 0 10 5 10 10 0 6 -4 10 -10 10 -5 0
-10 -4 -10 -10z"/>
<path d="M1327 923 c-14 -4 -15 -8 -7 -18 6 -7 9 -18 8 -25 -2 -7 2 -14 8 -16
6 -3 10 11 11 31 1 19 0 34 0 34 -1 -1 -10 -3 -20 -6z"/>
<path d="M1380 915 c0 -8 4 -15 10 -15 5 0 7 7 4 15 -4 8 -8 15 -10 15 -2 0
-4 -7 -4 -15z"/>
<path d="M1632 911 c-3 -9 -16 -11 -43 -7 -22 3 -39 2 -39 -3 0 -5 -16 -5 -41
0 -41 10 -59 6 -59 -12 0 -14 43 -28 55 -18 6 4 37 7 68 5 38 -2 61 2 68 11 6
7 15 11 19 8 10 -6 70 15 70 24 0 13 -92 6 -98 -8z"/>
<path d="M1274 905 c-7 -17 12 -45 30 -44 7 0 6 2 -1 6 -7 2 -13 9 -13 14 0 6
5 7 10 4 12 -7 12 -3 4 19 -8 20 -23 21 -30 1z"/>
<path d="M1415 911 c-9 -16 9 -20 23 -5 10 12 10 14 -2 14 -8 0 -17 -4 -21 -9z"/>
<path d="M1183 903 c9 -2 23 -2 30 0 6 3 -1 5 -18 5 -16 0 -22 -2 -12 -5z"/>
<path d="M1116 886 c55 -24 74 -28 74 -15 0 7 -3 10 -6 6 -4 -3 -19 0 -35 8
-15 8 -36 15 -46 15 -11 -1 -7 -6 13 -14z"/>
<path d="M1250 870 c0 -5 5 -10 11 -10 5 0 7 5 4 10 -3 6 -8 10 -11 10 -2 0
-4 -4 -4 -10z"/>
<path d="M2505 871 c-3 -5 -1 -12 5 -16 5 -3 10 1 10 9 0 18 -6 21 -15 7z"/>
<path d="M2464 764 c3 -9 6 -19 6 -22 0 -9 20 21 20 31 0 4 -7 7 -16 7 -11 0
-14 -5 -10 -16z"/>
<path d="M2445 670 c3 -5 8 -10 11 -10 2 0 4 5 4 10 0 6 -5 10 -11 10 -5 0 -7
-4 -4 -10z"/>
<path d="M2220 285 c0 -8 5 -15 10 -15 6 0 10 7 10 15 0 8 -4 15 -10 15 -5 0
-10 -7 -10 -15z"/>
<path d="M2195 270 c3 -5 8 -10 11 -10 2 0 4 5 4 10 0 6 -5 10 -11 10 -5 0 -7
-4 -4 -10z"/>
<path d="M2050 219 c-25 -22 -62 -52 -83 -65 -37 -24 -44 -43 -19 -52 7 -2 12
3 12 12 0 9 7 16 16 16 9 0 29 12 44 28 16 15 44 40 64 56 19 17 33 33 30 38
-8 13 -17 9 -64 -33z"/>
<path d="M2200 209 c0 -5 5 -7 10 -4 6 3 10 8 10 11 0 2 -4 4 -10 4 -5 0 -10
-5 -10 -11z"/>
<path d="M2175 190 c-3 -5 -1 -10 4 -10 6 0 11 5 11 10 0 6 -2 10 -4 10 -3 0
-8 -4 -11 -10z"/>
<path d="M2135 170 c3 -5 8 -10 11 -10 2 0 4 5 4 10 0 6 -5 10 -11 10 -5 0 -7
-4 -4 -10z"/>
<path d="M2105 150 c4 -6 11 -8 16 -5 14 9 11 15 -7 15 -8 0 -12 -5 -9 -10z"/>
<path d="M2180 150 c0 -5 7 -10 15 -10 8 0 15 5 15 10 0 6 -7 10 -15 10 -8 0
-15 -4 -15 -10z"/>
<path d="M2159 129 c12 -12 25 -18 28 -15 9 9 -18 36 -35 36 -12 0 -11 -5 7
-21z"/>
<path d="M2085 120 c-8 -12 35 -34 46 -23 4 4 -3 13 -16 20 -14 6 -27 7 -30 3z"/>
<path d="M1883 104 c-4 -10 -13 -14 -28 -10 -15 4 -25 1 -29 -10 -3 -8 -10
-12 -16 -9 -6 3 -13 -1 -16 -10 -4 -9 -13 -14 -20 -11 -8 3 -14 2 -14 -3 0
-10 -57 -25 -83 -23 -10 1 -15 -3 -12 -8 3 -6 15 -10 27 -10 32 0 128 30 128
41 0 5 9 9 20 9 25 0 80 27 80 39 0 17 -31 21 -37 5z"/>
<path d="M1990 110 c-9 -6 -10 -10 -3 -10 6 0 15 5 18 10 8 12 4 12 -15 0z"/>
<path d="M2050 89 c0 -5 5 -7 10 -4 6 3 10 8 10 11 0 2 -4 4 -10 4 -5 0 -10
-5 -10 -11z"/>
<path d="M1988 63 c-42 -6 -33 -24 10 -20 20 2 36 8 35 13 -2 11 -11 12 -45 7z"/>
<path d="M1655 50 c-3 -5 1 -10 10 -10 9 0 13 5 10 10 -3 6 -8 10 -10 10 -2 0
-7 -4 -10 -10z"/>
<path d="M2095 20 c-3 -5 -1 -10 4 -10 6 0 11 5 11 10 0 6 -2 10 -4 10 -3 0
-8 -4 -11 -10z"/>
</g>
</svg>
